<?xml version="1.0" encoding="UTF-8" standalone="no"?>
<svg
   width="215.89842"
   height="39.999973"
   viewBox="0 0 215.89842 39.999973"
   fill="none"
   version="1.1"
   id="svg22"
   sodipodi:docname="logo_docs_big.svg"
   inkscape:version="1.2.1 (9c6d41e410, 2022-07-14, custom)"
   xmlns:inkscape="http://www.inkscape.org/namespaces/inkscape"
   xmlns:sodipodi="http://sodipodi.sourceforge.net/DTD/sodipodi-0.dtd"
   xmlns="http://www.w3.org/2000/svg"
   xmlns:svg="http://www.w3.org/2000/svg">
  <sodipodi:namedview
     id="namedview24"
     pagecolor="#ffffff"
     bordercolor="#000000"
     borderopacity="0.25"
     inkscape:showpageshadow="2"
     inkscape:pageopacity="0.0"
     inkscape:pagecheckerboard="0"
     inkscape:deskcolor="#d1d1d1"
     showgrid="false"
     inkscape:zoom="6.0746901"
     inkscape:cx="112.43372"
     inkscape:cy="53.994524"
     inkscape:window-width="1465"
     inkscape:window-height="752"
     inkscape:window-x="324"
     inkscape:window-y="228"
     inkscape:window-maximized="0"
     inkscape:current-layer="svg22"
     showguides="true">
    <sodipodi:guide
       position="142.55871,9.3811276"
       orientation="0,-1"
       id="guide298"
       inkscape:locked="false" />
  </sodipodi:namedview>
  <rect
     style="fill:#2bbfb2;stroke-width:0.854173;stroke-linecap:round;stroke-linejoin:round"
     id="rect296"
     width="329.62665"
     height="114.44758"
     x="-34.573303"
     y="-30.764772"
     ry="4.0890684" />
  <g
     id="g901">
    <g
       clip-path="url(#clip0_2_56)"
       id="g11">
      <path
         fill-rule="evenodd"
         clip-rule="evenodd"
         d="M 18.0056,0.396708 7.5486,4.72813 C 6.27158,5.25707 5.25707,6.27158 4.72813,7.5486 l -4.331422,10.457 c -0.528944,1.277 -0.528944,2.7118 0,3.9888 l 4.331422,10.457 c 0.52894,1.2769 1.54345,2.2915 2.82047,2.8205 l 10.457,4.3314 c 1.277,0.5289 2.7118,0.5289 3.9888,0 l 10.457,-4.3314 c 1.2769,-0.529 2.2915,-1.5436 2.8205,-2.8205 l 4.3314,-10.457 c 0.5289,-1.277 0.5289,-2.7118 0,-3.9888 L 35.2719,7.5486 C 34.7429,6.27158 33.7283,5.25707 32.4514,4.72813 L 21.9944,0.396708 c -1.277,-0.528944 -2.7118,-0.528944 -3.9888,0 z m 4.8585,26.572292 4.8352,4.8352 c -4.6508,3.0402 -10.7039,3.0482 -15.3621,0.0238 l 4.8417,-4.8415 c 1.8201,0.7339 3.8688,0.7281 5.6852,-0.0175 z M 8.19569,12.3008 13.031,17.1361 c -0.771,1.878 -0.751,4.0044 0.0599,5.8696 L 8.27594,27.8205 C 5.14788,23.1421 5.12108,17.0044 8.19569,12.3008 Z M 31.7524,27.778 26.9305,22.956 c 0.7837,-1.839 0.8024,-3.9262 0.056,-5.7771 l 4.8415,-4.8417 c 3.0414,4.6845 3.0163,10.7797 -0.0756,15.4408 z M 27.8206,8.27594 23.0057,13.0909 c -1.8958,-0.8242 -4.0615,-0.8313 -5.9619,-0.0214 l -4.822,-4.82176 c 4.7137,-3.12688 10.894,-3.11748 15.5988,0.0282 z"
         fill="#ffffff"
         id="path2" />
      <mask
         id="mask0_2_56"
         maskUnits="userSpaceOnUse"
         x="0"
         y="0"
         width="40"
         height="40">
        <path
           d="m 18.0056,0.396708 c 1.277,-0.528944 2.7118,-0.528944 3.9888,0 l 10.457,4.331422 c 1.2769,0.52894 2.2915,1.54345 2.8205,2.82047 l 4.3314,10.457 c 0.5289,1.277 0.5289,2.7118 0,3.9887 l -4.3314,10.4571 c -0.529,1.2769 -1.5436,2.2915 -2.8205,2.8205 l -10.457,4.3314 c -1.277,0.5289 -2.7118,0.5289 -3.9888,0 L 7.5486,35.2719 C 6.27158,34.7429 5.25707,33.7283 4.72813,32.4514 L 0.396708,21.9943 c -0.528944,-1.2769 -0.528944,-2.7117 0,-3.9887 L 4.72813,7.5486 C 5.25707,6.27158 6.27158,5.25707 7.5486,4.72813 Z M 22.8641,26.969 c -1.8164,0.7456 -3.8651,0.7514 -5.6852,0.0175 l -4.8417,4.8415 c 4.6582,3.0244 10.7113,3.0164 15.3621,-0.0238 z M 8.19569,12.3008 C 5.12108,17.0044 5.14788,23.142 8.27594,27.8205 L 13.0908,23.0057 C 12.28,21.1405 12.26,19.0141 13.0309,17.1361 Z m 23.63231,0.0364 -4.8415,4.8417 c 0.7463,1.8509 0.7277,3.9381 -0.056,5.7771 l 4.8219,4.822 c 3.0918,-4.6611 3.117,-10.7563 0.0756,-15.4408 z M 27.8205,8.27594 C 23.1158,5.13026 16.9355,5.12086 12.2218,8.24774 l 4.822,4.82176 c 1.9004,-0.8099 4.0661,-0.8028 5.9619,0.0213 z"
           fill="#ffffff"
           id="path4" />
      </mask>
      <g
         mask="url(#mask0_2_56)"
         id="g9">
        <path
           fill-rule="evenodd"
           clip-rule="evenodd"
           d="M -0.192993,40.3252 H 40.3253 V -0.193089 H -0.192993 Z"
           fill="#ffffff"
           id="path7" />
      </g>
    </g>
    <g
       id="g787"
       transform="matrix(1.7061024,0,0,1.7061024,-35.204027,-11.346658)">
      <path
         d="M 47.6875,24.5 V 12.125 h 4.215 c 0.845,0 1.5775,0.15 2.1975,0.45 0.625,0.295 1.1075,0.7225 1.4475,1.2825 0.345,0.555 0.5175,1.225 0.5175,2.01 0,0.62 -0.11,1.18 -0.33,1.68 -0.22,0.495 -0.535,0.9125 -0.945,1.2525 -0.41,0.34 -0.9075,0.5925 -1.4925,0.7575 l 4.05,4.9425 H 54.265 l -3.57,-4.665 H 50.1175 V 24.5 Z m 2.43,-6.69 h 1.035 c 0.505,0 0.9325,-0.0725 1.2825,-0.2175 0.35,-0.145 0.6175,-0.3575 0.8025,-0.6375 0.19,-0.285 0.285,-0.625 0.285,-1.02 0,-0.6 -0.2075,-1.06 -0.6225,-1.38 -0.41,-0.325 -0.9925,-0.4875 -1.7475,-0.4875 h -1.035 z m 12.022,6.93 c -0.845,0 -1.6075,-0.1725 -2.2875,-0.5175 -0.68,-0.35 -1.22,-0.83 -1.62,-1.44 -0.4,-0.615 -0.6,-1.3225 -0.6,-2.1225 0,-0.8 0.1975,-1.505 0.5925,-2.115 0.4,-0.615 0.94,-1.095 1.62,-1.44 0.685,-0.35 1.45,-0.525 2.295,-0.525 0.85,0 1.615,0.175 2.295,0.525 0.68,0.345 1.2175,0.825 1.6125,1.44 0.4,0.61 0.6,1.315 0.6,2.115 0,0.8 -0.2,1.5075 -0.6,2.1225 -0.395,0.61 -0.9325,1.09 -1.6125,1.44 -0.68,0.345 -1.445,0.5175 -2.295,0.5175 z m 0.0075,-1.965 c 0.39,0 0.745,-0.09 1.065,-0.27 0.32,-0.18 0.5725,-0.4275 0.7575,-0.7425 0.185,-0.32 0.2775,-0.6875 0.2775,-1.1025 0,-0.415 -0.0925,-0.78 -0.2775,-1.095 -0.185,-0.32 -0.4375,-0.57 -0.7575,-0.75 -0.32,-0.18 -0.675,-0.27 -1.065,-0.27 -0.395,0 -0.7525,0.09 -1.0725,0.27 -0.315,0.18 -0.565,0.43 -0.75,0.75 -0.185,0.315 -0.2775,0.68 -0.2775,1.095 0,0.415 0.0925,0.7825 0.2775,1.1025 0.185,0.315 0.435,0.5625 0.75,0.7425 0.32,0.18 0.6775,0.27 1.0725,0.27 z m 11.5411,1.965 c -0.53,0 -1.0275,-0.11 -1.4925,-0.33 -0.465,-0.22 -0.8675,-0.5275 -1.2075,-0.9225 V 24.5 H 68.6856 V 11.6 h 2.3025 v 6.1575 c 0.305,-0.37 0.6875,-0.6575 1.1475,-0.8625 0.46,-0.21 0.9575,-0.315 1.4925,-0.315 0.74,0 1.4,0.18 1.98,0.54 0.58,0.355 1.035,0.84 1.365,1.455 0.33,0.61 0.495,1.305 0.495,2.085 0,0.795 -0.17,1.5 -0.51,2.115 -0.34,0.615 -0.7975,1.0975 -1.3725,1.4475 -0.57,0.345 -1.2025,0.5175 -1.8975,0.5175 z m -0.69,-1.9575 c 0.405,0 0.76,-0.09 1.065,-0.27 0.305,-0.185 0.545,-0.435 0.72,-0.75 0.175,-0.32 0.2625,-0.6825 0.2625,-1.0875 0,-0.41 -0.09,-0.775 -0.27,-1.095 -0.18,-0.325 -0.4225,-0.58 -0.7275,-0.765 -0.305,-0.185 -0.655,-0.2775 -1.05,-0.2775 -0.395,0 -0.75,0.0925 -1.065,0.2775 -0.31,0.185 -0.555,0.4375 -0.735,0.7575 -0.18,0.32 -0.27,0.6875 -0.27,1.1025 0,0.405 0.0875,0.7675 0.2625,1.0875 0.18,0.315 0.425,0.565 0.735,0.75 0.315,0.18 0.6725,0.27 1.0725,0.27 z m 10.351,1.9575 c -1.4,0 -2.41,-0.2775 -3.03,-0.8325 -0.62,-0.555 -0.93,-1.4625 -0.93,-2.7225 V 16.82 h 2.3025 v 3.825 c 0,0.81 0.125,1.3825 0.375,1.7175 0.255,0.335 0.6825,0.5025 1.2825,0.5025 0.61,0 1.0375,-0.1675 1.2825,-0.5025 0.25,-0.335 0.375,-0.9075 0.375,-1.7175 V 16.82 h 2.3025 v 4.365 c 0,1.26 -0.31,2.1675 -0.93,2.7225 -0.615,0.555 -1.625,0.8325 -3.03,0.8325 z m 8.6053,0 c -0.65,0 -1.2325,-0.1025 -1.7475,-0.3075 -0.51,-0.205 -0.935,-0.505 -1.275,-0.9 l 0.9675,-1.545 c 0.32,0.34 0.655,0.6 1.005,0.78 0.35,0.18 0.7,0.27 1.05,0.27 0.195,0 0.3625,-0.0325 0.5025,-0.0975 0.145,-0.065 0.2575,-0.1575 0.3375,-0.2775 0.085,-0.125 0.1275,-0.275 0.1275,-0.45 0,-0.2 -0.0575,-0.3575 -0.1725,-0.4725 -0.11,-0.115 -0.28,-0.22 -0.51,-0.315 -0.23,-0.1 -0.5275,-0.225 -0.8925,-0.375 -0.31,-0.13 -0.6075,-0.2775 -0.8925,-0.4425 -0.285,-0.165 -0.5175,-0.375 -0.6975,-0.63 -0.175,-0.255 -0.2625,-0.5775 -0.2625,-0.9675 0,-0.475 0.1325,-0.8925 0.3975,-1.2525 0.265,-0.365 0.63,-0.65 1.095,-0.855 0.47,-0.205 1.01,-0.3075 1.62,-0.3075 0.38,0 0.7775,0.0575 1.1925,0.1725 0.42,0.115 0.8675,0.29 1.3425,0.525 L 94.3544,18.77 c -0.645,-0.415 -1.2225,-0.6225 -1.7325,-0.6225 -0.285,0 -0.5125,0.0625 -0.6825,0.1875 -0.17,0.125 -0.255,0.2825 -0.255,0.4725 0,0.18 0.0875,0.3375 0.2625,0.4725 0.18,0.13 0.3975,0.2475 0.6525,0.3525 0.26,0.1 0.5075,0.1925 0.7425,0.2775 0.385,0.14 0.725,0.295 1.02,0.465 0.3,0.17 0.535,0.3925 0.705,0.6675 0.17,0.27 0.255,0.6325 0.255,1.0875 0,0.555 -0.135,1.0275 -0.405,1.4175 -0.265,0.385 -0.65,0.68 -1.155,0.885 -0.5,0.205 -1.1025,0.3075 -1.8075,0.3075 z m 8.0164,0 c -0.765,0 -1.36,-0.2425 -1.785,-0.7275 -0.425,-0.49 -0.6375,-1.1725 -0.6375,-2.0475 V 18.5675 H 96.5208 V 16.82 h 1.0275 v -2.88 h 2.3025 v 2.88 h 1.6872 v 1.7475 H 99.8508 V 21.8 c 0,0.29 0.0575,0.51 0.1722,0.66 0.12,0.15 0.288,0.225 0.503,0.225 0.24,0 0.47,-0.08 0.69,-0.24 l 0.577,1.845 c -0.26,0.14 -0.552,0.25 -0.877,0.33 -0.32,0.08 -0.635,0.12 -0.9452,0.12 z m 6.9852,0 c -0.705,0 -1.347,-0.175 -1.927,-0.525 -0.575,-0.355 -1.033,-0.84 -1.373,-1.455 -0.335,-0.62 -0.502,-1.325 -0.502,-2.115 0,-0.77 0.162,-1.46 0.487,-2.07 0.325,-0.615 0.773,-1.1 1.343,-1.455 0.575,-0.36 1.232,-0.54 1.972,-0.54 0.545,0 1.053,0.105 1.523,0.315 0.475,0.205 0.862,0.4925 1.162,0.8625 V 16.82 h 2.303 v 7.68 h -2.303 v -1.0125 c -0.35,0.405 -0.752,0.715 -1.207,0.93 -0.455,0.215 -0.948,0.3225 -1.478,0.3225 z m 0.683,-1.9575 c 0.4,0 0.755,-0.09 1.065,-0.27 0.31,-0.185 0.552,-0.4375 0.727,-0.7575 0.175,-0.32 0.263,-0.685 0.263,-1.095 0,-0.415 -0.09,-0.78 -0.27,-1.095 -0.175,-0.32 -0.418,-0.57 -0.728,-0.75 -0.305,-0.185 -0.657,-0.2775 -1.057,-0.2775 -0.395,0 -0.748,0.0925 -1.058,0.2775 -0.31,0.18 -0.555,0.43 -0.735,0.75 -0.18,0.32 -0.27,0.685 -0.27,1.095 0,0.41 0.088,0.775 0.263,1.095 0.18,0.32 0.425,0.5725 0.735,0.7575 0.31,0.18 0.665,0.27 1.065,0.27 z"
         fill="#ffffff"
         id="path13" />
      <path
         d="m 118.255,24.5935 h -2.343 l 0.014,-1.8457 h 2.329 c 0.533,0 0.982,-0.1221 1.348,-0.3662 0.366,-0.249 0.645,-0.6152 0.835,-1.0986 0.19,-0.4883 0.286,-1.0816 0.286,-1.7798 v -0.4908 c 0,-0.5273 -0.054,-0.9912 -0.162,-1.3916 -0.107,-0.4052 -0.266,-0.7446 -0.476,-1.018 -0.21,-0.2735 -0.471,-0.4785 -0.783,-0.6153 -0.308,-0.1367 -0.662,-0.205 -1.062,-0.205 h -2.373 v -1.8531 h 2.373 c 0.722,0 1.382,0.1221 1.977,0.3662 0.601,0.2442 1.118,0.5933 1.553,1.0474 0.439,0.4541 0.779,0.9912 1.018,1.6113 0.239,0.6202 0.359,1.3111 0.359,2.0728 v 0.4761 c 0,0.7568 -0.12,1.4477 -0.359,2.0727 -0.239,0.6201 -0.579,1.1572 -1.018,1.6114 -0.435,0.4492 -0.95,0.7958 -1.545,1.04 -0.596,0.2441 -1.253,0.3662 -1.971,0.3662 z m -0.988,-10.6641 v 10.6641 h -2.388 V 13.9294 Z m 6.892,6.7823 v -0.1538 c 0,-0.5811 0.083,-1.1158 0.249,-1.604 0.166,-0.4932 0.41,-0.9205 0.732,-1.2818 0.322,-0.3613 0.718,-0.6421 1.187,-0.8423 0.468,-0.2051 1.006,-0.3076 1.611,-0.3076 0.615,0 1.157,0.1025 1.626,0.3076 0.474,0.2002 0.872,0.481 1.194,0.8423 0.322,0.3613 0.566,0.7886 0.732,1.2818 0.166,0.4882 0.249,1.0229 0.249,1.604 v 0.1538 c 0,0.5761 -0.083,1.1108 -0.249,1.604 -0.166,0.4882 -0.41,0.9155 -0.732,1.2817 -0.322,0.3613 -0.718,0.6421 -1.187,0.8423 -0.468,0.2002 -1.008,0.3003 -1.618,0.3003 -0.606,0 -1.145,-0.1001 -1.619,-0.3003 -0.474,-0.2002 -0.872,-0.481 -1.194,-0.8423 -0.322,-0.3662 -0.566,-0.7935 -0.732,-1.2817 -0.166,-0.4932 -0.249,-1.0279 -0.249,-1.604 z m 2.292,-0.1538 v 0.1538 c 0,0.3125 0.025,0.6054 0.073,0.8789 0.054,0.2734 0.14,0.5127 0.257,0.7177 0.117,0.2051 0.271,0.3663 0.461,0.4834 0.196,0.1123 0.432,0.1685 0.711,0.1685 0.278,0 0.512,-0.0562 0.703,-0.1685 0.19,-0.1171 0.344,-0.2783 0.461,-0.4834 0.117,-0.205 0.2,-0.4443 0.249,-0.7177 0.054,-0.2735 0.081,-0.5664 0.081,-0.8789 v -0.1538 c 0,-0.3077 -0.027,-0.5957 -0.081,-0.8643 -0.049,-0.2734 -0.132,-0.5151 -0.249,-0.7251 -0.117,-0.21 -0.273,-0.3735 -0.469,-0.4907 -0.19,-0.1172 -0.427,-0.1758 -0.71,-0.1758 -0.273,0 -0.505,0.0586 -0.696,0.1758 -0.19,0.1172 -0.344,0.2807 -0.461,0.4907 -0.117,0.21 -0.203,0.4517 -0.257,0.7251 -0.048,0.2686 -0.073,0.5566 -0.073,0.8643 z m 9.8,2.4023 c 0.244,0 0.457,-0.0464 0.637,-0.1392 0.181,-0.0927 0.32,-0.2221 0.418,-0.3881 0.102,-0.1709 0.153,-0.376 0.153,-0.6153 h 2.154 c 0,0.5762 -0.149,1.084 -0.447,1.5235 -0.293,0.4394 -0.688,0.7836 -1.187,1.0327 -0.498,0.2441 -1.059,0.3662 -1.684,0.3662 -0.615,0 -1.152,-0.1001 -1.611,-0.3003 -0.459,-0.2051 -0.843,-0.4907 -1.15,-0.8569 -0.308,-0.3663 -0.54,-0.7911 -0.696,-1.2745 -0.151,-0.4882 -0.227,-1.0156 -0.227,-1.582 v -0.1904 c 0,-0.5615 0.076,-1.0864 0.227,-1.5747 0.156,-0.4883 0.388,-0.9156 0.696,-1.2818 0.307,-0.3662 0.688,-0.6494 1.142,-0.8496 0.459,-0.2051 0.996,-0.3076 1.612,-0.3076 0.649,0 1.223,0.1245 1.721,0.3735 0.503,0.2491 0.896,0.608 1.179,1.0767 0.283,0.4639 0.425,1.023 0.425,1.6773 h -2.154 c 0,-0.254 -0.046,-0.481 -0.139,-0.6812 -0.088,-0.2051 -0.224,-0.3662 -0.41,-0.4834 -0.181,-0.1221 -0.405,-0.1831 -0.674,-0.1831 -0.278,0 -0.507,0.061 -0.688,0.1831 -0.176,0.1172 -0.31,0.2808 -0.403,0.4907 -0.093,0.21 -0.156,0.4492 -0.19,0.7178 -0.035,0.2637 -0.052,0.5444 -0.052,0.8423 v 0.1904 c 0,0.3027 0.017,0.5908 0.052,0.8643 0.034,0.2685 0.097,0.5053 0.19,0.7104 0.098,0.2051 0.234,0.3662 0.41,0.4834 0.176,0.1172 0.408,0.1758 0.696,0.1758 z m 8.716,-0.5713 c 0,-0.1465 -0.047,-0.2759 -0.139,-0.3882 -0.088,-0.1123 -0.249,-0.2148 -0.484,-0.3076 -0.229,-0.0928 -0.554,-0.1855 -0.974,-0.2783 -0.395,-0.083 -0.764,-0.1904 -1.106,-0.3223 -0.342,-0.1367 -0.639,-0.3003 -0.893,-0.4907 -0.254,-0.1953 -0.452,-0.4248 -0.594,-0.6885 -0.141,-0.2685 -0.212,-0.5737 -0.212,-0.9155 0,-0.332 0.071,-0.647 0.212,-0.9448 0.147,-0.2979 0.357,-0.5616 0.63,-0.791 0.279,-0.2295 0.615,-0.4102 1.011,-0.542 0.4,-0.1319 0.854,-0.1978 1.362,-0.1978 0.699,0 1.302,0.1099 1.809,0.3296 0.508,0.2148 0.899,0.5176 1.172,0.9082 0.274,0.3857 0.41,0.8276 0.41,1.3257 h -2.285 c 0,-0.2051 -0.039,-0.3833 -0.117,-0.5347 -0.078,-0.1513 -0.198,-0.2685 -0.359,-0.3515 -0.161,-0.0879 -0.373,-0.1319 -0.637,-0.1319 -0.205,0 -0.386,0.0366 -0.542,0.1099 -0.151,0.0683 -0.271,0.1636 -0.359,0.2856 -0.083,0.1221 -0.124,0.2637 -0.124,0.4248 0,0.1123 0.024,0.2149 0.073,0.3077 0.054,0.0878 0.134,0.1708 0.241,0.249 0.113,0.0732 0.257,0.1391 0.433,0.1977 0.18,0.0586 0.4,0.1148 0.659,0.1685 0.552,0.1025 1.054,0.2466 1.509,0.4321 0.459,0.1856 0.825,0.4419 1.098,0.7691 0.279,0.3271 0.418,0.7592 0.418,1.2963 0,0.3516 -0.081,0.6739 -0.242,0.9668 -0.156,0.293 -0.383,0.5494 -0.681,0.7691 -0.298,0.2197 -0.654,0.3906 -1.069,0.5127 -0.416,0.122 -0.884,0.1831 -1.407,0.1831 -0.747,0 -1.379,-0.1343 -1.897,-0.4028 -0.517,-0.2686 -0.908,-0.6055 -1.172,-1.0108 -0.258,-0.4101 -0.388,-0.8301 -0.388,-1.2598 h 2.146 c 0.01,0.2637 0.076,0.4786 0.198,0.6446 0.127,0.166 0.291,0.2881 0.491,0.3662 0.2,0.0732 0.425,0.1099 0.674,0.1099 0.249,0 0.456,-0.0342 0.622,-0.1026 0.166,-0.0683 0.293,-0.1611 0.381,-0.2783 0.088,-0.1221 0.132,-0.2612 0.132,-0.4175 z"
         fill="#ffffff"
         id="path15" />
    </g>
  </g>
  <defs
     id="defs20">
    <clipPath
       id="clip0_2_56">
      <rect
         width="40"
         height="40"
         fill="#ffffff"
         id="rect17"
         x="0"
         y="0" />
    </clipPath>
  </defs>
</svg>
