<?xml version="1.0" encoding="UTF-8" standalone="no"?>
<svg
   width="154"
   height="40"
   viewBox="0 0 154 40"
   fill="none"
   version="1.1"
   id="svg22"
   sodipodi:docname="logo_docs.svg"
   inkscape:version="1.2.1 (9c6d41e410, 2022-07-14, custom)"
   xmlns:inkscape="http://www.inkscape.org/namespaces/inkscape"
   xmlns:sodipodi="http://sodipodi.sourceforge.net/DTD/sodipodi-0.dtd"
   xmlns="http://www.w3.org/2000/svg"
   xmlns:svg="http://www.w3.org/2000/svg">
  <sodipodi:namedview
     id="namedview24"
     pagecolor="#ffffff"
     bordercolor="#000000"
     borderopacity="0.25"
     inkscape:showpageshadow="2"
     inkscape:pageopacity="0.0"
     inkscape:pagecheckerboard="0"
     inkscape:deskcolor="#d1d1d1"
     showgrid="false"
     inkscape:zoom="2.1477273"
     inkscape:cx="30.962963"
     inkscape:cy="-81.248677"
     inkscape:window-width="1920"
     inkscape:window-height="1053"
     inkscape:window-x="0"
     inkscape:window-y="27"
     inkscape:window-maximized="1"
     inkscape:current-layer="svg22" />
  <g
     id="g500"
     inkscape:export-filename="logo_docs_big.svg"
     inkscape:export-xdpi="96"
     inkscape:export-ydpi="96">
    <g
       clip-path="url(#clip0_2_56)"
       id="g11">
      <path
         fill-rule="evenodd"
         clip-rule="evenodd"
         d="M 18.0056,0.396708 7.5486,4.72813 C 6.27158,5.25707 5.25707,6.27158 4.72813,7.5486 l -4.331422,10.457 c -0.528944,1.277 -0.528944,2.7118 0,3.9888 l 4.331422,10.457 c 0.52894,1.2769 1.54345,2.2915 2.82047,2.8205 l 10.457,4.3314 c 1.277,0.5289 2.7118,0.5289 3.9888,0 l 10.457,-4.3314 c 1.2769,-0.529 2.2915,-1.5436 2.8205,-2.8205 l 4.3314,-10.457 c 0.5289,-1.277 0.5289,-2.7118 0,-3.9888 L 35.2719,7.5486 C 34.7429,6.27158 33.7283,5.25707 32.4514,4.72813 L 21.9944,0.396708 c -1.277,-0.528944 -2.7118,-0.528944 -3.9888,0 z m 4.8585,26.572292 4.8352,4.8352 c -4.6508,3.0402 -10.7039,3.0482 -15.3621,0.0238 l 4.8417,-4.8415 c 1.8201,0.7339 3.8688,0.7281 5.6852,-0.0175 z M 8.19569,12.3008 13.031,17.1361 c -0.771,1.878 -0.751,4.0044 0.0599,5.8696 L 8.27594,27.8205 C 5.14788,23.1421 5.12108,17.0044 8.19569,12.3008 Z M 31.7524,27.778 26.9305,22.956 c 0.7837,-1.839 0.8024,-3.9262 0.056,-5.7771 l 4.8415,-4.8417 c 3.0414,4.6845 3.0163,10.7797 -0.0756,15.4408 z M 27.8206,8.27594 23.0057,13.0909 c -1.8958,-0.8242 -4.0615,-0.8313 -5.9619,-0.0214 l -4.822,-4.82176 c 4.7137,-3.12688 10.894,-3.11748 15.5988,0.0282 z"
         fill="#ffffff"
         id="path2" />
      <mask
         id="mask0_2_56"
         maskUnits="userSpaceOnUse"
         x="0"
         y="0"
         width="40"
         height="40">
        <path
           d="m 18.0056,0.396708 c 1.277,-0.528944 2.7118,-0.528944 3.9888,0 l 10.457,4.331422 c 1.2769,0.52894 2.2915,1.54345 2.8205,2.82047 l 4.3314,10.457 c 0.5289,1.277 0.5289,2.7118 0,3.9887 l -4.3314,10.4571 c -0.529,1.2769 -1.5436,2.2915 -2.8205,2.8205 l -10.457,4.3314 c -1.277,0.5289 -2.7118,0.5289 -3.9888,0 L 7.5486,35.2719 C 6.27158,34.7429 5.25707,33.7283 4.72813,32.4514 L 0.396708,21.9943 c -0.528944,-1.2769 -0.528944,-2.7117 0,-3.9887 L 4.72813,7.5486 C 5.25707,6.27158 6.27158,5.25707 7.5486,4.72813 Z M 22.8641,26.969 c -1.8164,0.7456 -3.8651,0.7514 -5.6852,0.0175 l -4.8417,4.8415 c 4.6582,3.0244 10.7113,3.0164 15.3621,-0.0238 z M 8.19569,12.3008 C 5.12108,17.0044 5.14788,23.142 8.27594,27.8205 L 13.0908,23.0057 C 12.28,21.1405 12.26,19.0141 13.0309,17.1361 Z m 23.63231,0.0364 -4.8415,4.8417 c 0.7463,1.8509 0.7277,3.9381 -0.056,5.7771 l 4.8219,4.822 c 3.0918,-4.6611 3.117,-10.7563 0.0756,-15.4408 z M 27.8205,8.27594 C 23.1158,5.13026 16.9355,5.12086 12.2218,8.24774 l 4.822,4.82176 c 1.9004,-0.8099 4.0661,-0.8028 5.9619,0.0213 z"
           fill="#ffffff"
           id="path4" />
      </mask>
      <g
         mask="url(#mask0_2_56)"
         id="g9">
        <path
           fill-rule="evenodd"
           clip-rule="evenodd"
           d="M -0.192993,40.3252 H 40.3253 V -0.193089 H -0.192993 Z"
           fill="#ffffff"
           id="path7" />
      </g>
    </g>
    <g
       id="g489">
      <path
         d="M 49.76776,30.967084 V 8.8154002 h 7.544998 c 1.512579,0 2.823781,0.2685049 3.933602,0.8055153 1.118772,0.5280605 1.982464,1.2933015 2.591076,2.2957205 0.617563,0.99347 0.926343,2.192792 0.926343,3.59797 0,1.109822 -0.196902,2.112241 -0.590711,3.007259 -0.393807,0.886068 -0.957669,1.633408 -1.691583,2.24202 -0.733915,0.608612 -1.624457,1.060596 -2.671628,1.355952 l 7.249643,8.847247 h -5.517784 l -6.390425,-8.350513 h -1.033746 v 8.350513 z M 54.117545,18.99175 h 1.852688 c 0.903967,0 1.669207,-0.129782 2.29572,-0.389332 0.626512,-0.259556 1.105347,-0.639939 1.436504,-1.141148 0.340106,-0.51016 0.51016,-1.118771 0.51016,-1.825836 0,-1.074021 -0.371434,-1.897437 -1.114297,-2.470248 -0.733916,-0.581761 -1.776612,-0.872642 -3.128087,-0.872642 h -1.852688 z m 21.519804,12.404943 c -1.512581,0 -2.877483,-0.308781 -4.094706,-0.926343 -1.217224,-0.626512 -2.183843,-1.485729 -2.899858,-2.57765 -0.716013,-1.100872 -1.074021,-2.367322 -1.074021,-3.79935 0,-1.432028 0.353533,-2.694003 1.060597,-3.785924 0.716013,-1.100871 1.682632,-1.960089 2.899856,-2.577651 1.226175,-0.626512 2.595551,-0.939768 4.108132,-0.939768 1.521528,0 2.890906,0.313256 4.108129,0.939768 1.217225,0.617562 2.179368,1.47678 2.886433,2.577651 0.716015,1.091921 1.07402,2.353896 1.07402,3.785924 0,1.432028 -0.358005,2.698478 -1.07402,3.79935 -0.707065,1.091921 -1.669208,1.951138 -2.886433,2.57765 -1.217223,0.617562 -2.586601,0.926343 -4.108129,0.926343 z m 0.01343,-3.517419 c 0.698115,0 1.333576,-0.161104 1.906388,-0.483309 0.57281,-0.322206 1.024795,-0.76524 1.355951,-1.329102 0.331156,-0.57281 0.496735,-1.230648 0.496735,-1.973513 0,-0.742865 -0.165578,-1.396228 -0.496735,-1.960089 -0.331156,-0.57281 -0.783141,-1.02032 -1.355951,-1.342526 -0.572812,-0.322206 -1.208273,-0.483309 -1.906388,-0.483309 -0.707064,0 -1.347001,0.161103 -1.919813,0.483309 -0.56386,0.322206 -1.01137,0.769716 -1.342526,1.342526 -0.331157,0.563861 -0.496735,1.217224 -0.496735,1.960089 0,0.742865 0.165578,1.400703 0.496735,1.973513 0.331156,0.563862 0.778666,1.006896 1.342526,1.329102 0.572812,0.322205 1.212749,0.483309 1.919813,0.483309 z m 20.658975,3.517419 c -0.948719,0 -1.839261,-0.196904 -2.671628,-0.590711 -0.832366,-0.393807 -1.552856,-0.944244 -2.161467,-1.651307 v 1.812409 h -4.12156 V 7.8756318 h 4.121556 V 18.897773 c 0.545961,-0.662312 1.230649,-1.176949 2.054066,-1.543906 0.823417,-0.375906 1.713957,-0.56386 2.671628,-0.56386 1.324624,0 2.506047,0.322206 3.544268,0.966619 1.038224,0.635462 1.852684,1.503629 2.443394,2.6045 0.59072,1.091922 0.88607,2.335996 0.88607,3.732224 0,1.423078 -0.3043,2.685053 -0.91292,3.785924 -0.60861,1.100871 -1.42755,1.964564 -2.456819,2.591076 -1.02032,0.617562 -2.152518,0.926343 -3.396592,0.926343 z M 95.074627,27.8927 c 0.724964,0 1.360427,-0.161104 1.906389,-0.48331 0.545959,-0.331157 0.975568,-0.778665 1.288825,-1.342527 0.313256,-0.57281 0.469883,-1.221698 0.469883,-1.946663 0,-0.733914 -0.161103,-1.387277 -0.483308,-1.960088 C 97.934208,21.57835 97.500124,21.121892 96.954164,20.790735 96.408203,20.459578 95.781692,20.294 95.074627,20.294 c -0.707064,0 -1.342526,0.165578 -1.906387,0.496735 -0.554911,0.331157 -0.993469,0.78314 -1.315675,1.355952 -0.322207,0.57281 -0.483309,1.23065 -0.483309,1.973513 0,0.724965 0.156626,1.373853 0.469883,1.946663 0.322206,0.563862 0.760764,1.01137 1.315675,1.342527 0.563861,0.322206 1.203799,0.48331 1.919813,0.48331 z m 18.528653,3.503993 c -2.50605,0 -4.31399,-0.496734 -5.42381,-1.490204 -1.10982,-0.993469 -1.66473,-2.617926 -1.66473,-4.87337 v -7.813503 h 4.12155 V 24.0665 c 0,1.449928 0.22376,2.474723 0.67127,3.074385 0.45646,0.599661 1.2217,0.899493 2.29572,0.899493 1.09192,0 1.85716,-0.299832 2.29572,-0.899493 0.44751,-0.599662 0.67126,-1.624457 0.67126,-3.074385 v -6.846884 h 4.12156 v 7.813503 c 0,2.255444 -0.55492,3.879901 -1.66474,4.87337 -1.10087,0.99347 -2.9088,1.490204 -5.4238,1.490204 z m 15.40379,0 c -1.16353,0 -2.20622,-0.183478 -3.12809,-0.550436 -0.91292,-0.366957 -1.67368,-0.903967 -2.2823,-1.611031 l 1.73186,-2.765604 c 0.57281,0.608611 1.17248,1.07402 1.79899,1.396228 0.62651,0.322206 1.25302,0.483308 1.87954,0.483308 0.34905,0 0.64888,-0.05818 0.89949,-0.174528 0.25955,-0.116354 0.46093,-0.28193 0.60414,-0.496734 0.15215,-0.223755 0.22822,-0.49226 0.22822,-0.805516 0,-0.358007 -0.10292,-0.639938 -0.30878,-0.845792 -0.1969,-0.205854 -0.50121,-0.393807 -0.91291,-0.563862 -0.41171,-0.179003 -0.94425,-0.402757 -1.59761,-0.671262 -0.55491,-0.232705 -1.08745,-0.496736 -1.59761,-0.792091 -0.51016,-0.295356 -0.92634,-0.671264 -1.24855,-1.127722 -0.31325,-0.456459 -0.46988,-1.033745 -0.46988,-1.731859 0,-0.850267 0.23718,-1.597607 0.71154,-2.242019 0.47436,-0.653363 1.12772,-1.163523 1.96009,-1.53048 0.84131,-0.366957 1.80793,-0.550436 2.89985,-0.550436 0.68022,0 1.39176,0.102925 2.13462,0.308782 0.75182,0.205853 1.55286,0.519109 2.40312,0.939768 l -1.40965,2.644777 c -1.15457,-0.742865 -2.18832,-1.114297 -3.10124,-1.114297 -0.51016,0 -0.91739,0.111878 -1.22169,0.335631 -0.30431,0.223755 -0.45646,0.505685 -0.45646,0.845791 0,0.322208 0.15663,0.604137 0.46988,0.845792 0.32221,0.232705 0.71154,0.443034 1.168,0.630988 0.46541,0.179004 0.90844,0.344581 1.3291,0.496735 0.68916,0.250605 1.29778,0.528059 1.82584,0.832366 0.53701,0.304307 0.95766,0.702589 1.26197,1.194848 0.30431,0.48331 0.45646,1.132198 0.45646,1.946664 0,0.993468 -0.24166,1.83926 -0.72496,2.537374 -0.47436,0.689165 -1.16353,1.217224 -2.0675,1.584181 -0.89501,0.366958 -1.97351,0.550436 -3.23548,0.550436 z m 14.34963,0 c -1.36937,0 -2.43444,-0.434084 -3.19521,-1.302251 -0.76076,-0.877117 -1.14115,-2.098815 -1.14115,-3.665097 v -6.081643 h -1.83926 v -3.128086 h 1.83926 v -5.155302 h 4.12156 v 5.155302 h 3.02015 v 3.128086 h -3.02015 v 5.786288 c 0,0.519111 0.10292,0.912918 0.30824,1.181423 0.2148,0.268506 0.51553,0.402757 0.90038,0.402757 0.42961,0 0.84133,-0.143201 1.23514,-0.429607 l 1.03284,3.302615 c -0.46541,0.250604 -0.9881,0.447508 -1.56987,0.590711 -0.5728,0.143203 -1.13666,0.214804 -1.69193,0.214804 z m 12.50375,0 c -1.26198,0 -2.41117,-0.313256 -3.44939,-0.939769 -1.02928,-0.635462 -1.84911,-1.503629 -2.45772,-2.6045 -0.59966,-1.109822 -0.8986,-2.371797 -0.8986,-3.785924 0,-1.378328 0.28998,-2.613452 0.87175,-3.705374 0.58176,-1.100871 1.3837,-1.969038 2.40401,-2.6045 1.02927,-0.644413 2.20533,-0.966619 3.52995,-0.966619 0.97558,0 1.8849,0.187954 2.72622,0.56386 0.85028,0.366957 1.54302,0.881594 2.08003,1.543906 v -1.678157 h 4.12245 v 13.747468 h -4.12245 v -1.812409 c -0.62652,0.724964 -1.34611,1.279874 -2.16057,1.664732 -0.81448,0.384857 -1.69696,0.577286 -2.64568,0.577286 z m 1.2226,-3.503993 c 0.716,0 1.35147,-0.161104 1.90639,-0.48331 0.55491,-0.331157 0.98809,-0.783141 1.30135,-1.355951 0.31326,-0.572812 0.47079,-1.226175 0.47079,-1.960089 0,-0.742865 -0.16112,-1.396228 -0.48332,-1.960089 -0.31326,-0.57281 -0.74823,-1.02032 -1.30314,-1.342526 -0.54596,-0.331157 -1.17607,-0.496735 -1.89207,-0.496735 -0.70707,0 -1.33894,0.165578 -1.89386,0.496735 -0.55491,0.322206 -0.99347,0.769716 -1.31567,1.342526 -0.32221,0.572812 -0.48332,1.226175 -0.48332,1.960089 0,0.733914 0.15753,1.387277 0.47078,1.960089 0.3222,0.57281 0.76076,1.024794 1.31568,1.355951 0.55491,0.322206 1.19038,0.48331 1.90639,0.48331 z"
         fill="#ffffff"
         id="path13"
         style="stroke-width:1.79003" />
      <path
         d="m 176.60009,31.862102 h -4.19406 l 0.025,-3.303867 h 4.16899 c 0.95409,0 1.75782,-0.218563 2.41298,-0.655511 0.65515,-0.445719 1.15457,-1.10123 1.49468,-1.966533 0.34009,-0.874074 0.51194,-1.936102 0.51194,-3.185905 v -0.878549 c 0,-0.943885 -0.0966,-1.774282 -0.28998,-2.491013 -0.19153,-0.725322 -0.47615,-1.33286 -0.85207,-1.822256 -0.3759,-0.489573 -0.8431,-0.856532 -1.40158,-1.101407 -0.55134,-0.244698 -1.18501,-0.366957 -1.90102,-0.366957 h -4.24769 v -3.317115 h 4.24776 c 1.2924,0 2.47382,0.218563 3.53889,0.65551 1.07581,0.437127 2.00126,1.062028 2.77992,1.874884 0.78583,0.812855 1.39444,1.774282 1.82226,2.884284 0.42782,1.110179 0.64262,2.346914 0.64262,3.710384 v 0.852235 c 0,1.354699 -0.2148,2.591435 -0.64262,3.710207 -0.42782,1.11 -1.03643,2.071428 -1.82226,2.884461 -0.77866,0.804084 -1.70053,1.424511 -2.7656,1.861637 -1.06687,0.436948 -2.24292,0.655511 -3.52816,0.655511 z m -1.76856,-19.089113 v 19.089113 h -4.27459 V 12.772989 Z m 12.33693,12.140555 v -0.275307 c 0,-1.040189 0.14858,-1.997321 0.44572,-2.871217 0.29714,-0.882846 0.73392,-1.647728 1.31031,-2.294467 0.57639,-0.64674 1.28524,-1.149381 2.12477,-1.507747 0.83773,-0.367136 1.80077,-0.550614 2.88374,-0.550614 1.10087,0 2.07107,0.183478 2.9106,0.550614 0.84847,0.358366 1.56091,0.861007 2.1373,1.507747 0.57639,0.646739 1.01316,1.411621 1.31031,2.294467 0.29714,0.873896 0.44572,1.831028 0.44572,2.871217 v 0.275307 c 0,1.031239 -0.14858,1.988371 -0.44572,2.871216 -0.29715,0.873895 -0.73392,1.638777 -1.31031,2.294288 -0.57639,0.64674 -1.28524,1.149382 -2.12477,1.507747 -0.83774,0.358365 -1.80436,0.537548 -2.89628,0.537548 -1.08476,0 -2.04959,-0.179183 -2.89807,-0.537548 -0.84848,-0.358365 -1.5609,-0.861007 -2.13729,-1.507747 -0.57639,-0.655511 -1.01317,-1.420393 -1.31031,-2.294288 -0.29714,-0.882845 -0.44572,-1.839977 -0.44572,-2.871216 z m 4.10276,-0.275307 v 0.275307 c 0,0.559386 0.0448,1.083687 0.13062,1.573262 0.0966,0.489396 0.2506,0.917751 0.46004,1.284708 0.20943,0.367136 0.4851,0.65569 0.82521,0.865304 0.35084,0.201019 0.77329,0.30162 1.2727,0.30162 0.49764,0 0.9165,-0.100595 1.25841,-0.30162 0.3401,-0.209614 0.61577,-0.498168 0.8252,-0.865304 0.20943,-0.366957 0.35801,-0.795312 0.44572,-1.284708 0.0967,-0.489575 0.14499,-1.013876 0.14499,-1.573262 v -0.275307 c 0,-0.550794 -0.0483,-1.066324 -0.14499,-1.547128 -0.0877,-0.489396 -0.23629,-0.922046 -0.44572,-1.297954 -0.20943,-0.375907 -0.48868,-0.668578 -0.83952,-0.87837 -0.34011,-0.209793 -0.76435,-0.314688 -1.27093,-0.314688 -0.48869,0 -0.90397,0.104902 -1.24586,0.314688 -0.34011,0.209792 -0.61578,0.502463 -0.82521,0.87837 -0.20944,0.375908 -0.36338,0.808558 -0.46004,1.297954 -0.086,0.480804 -0.13062,0.996334 -0.13062,1.547128 z m 17.54234,4.300201 c 0.43677,0 0.81805,-0.08306 1.14026,-0.249172 0.32399,-0.165937 0.5728,-0.397568 0.74823,-0.694714 0.18258,-0.305916 0.27387,-0.673053 0.27387,-1.101408 h 3.85574 c 0,1.031418 -0.26671,1.940398 -0.80014,2.727119 -0.52449,0.786541 -1.23155,1.402671 -2.12478,1.848568 -0.89143,0.436949 -1.89565,0.655512 -3.01441,0.655512 -1.10088,0 -2.06212,-0.179183 -2.88375,-0.537548 -0.82163,-0.367136 -1.509,-0.87837 -2.05854,-1.533882 -0.55133,-0.65569 -0.96662,-1.416095 -1.24587,-2.281399 -0.27029,-0.873895 -0.40633,-1.817959 -0.40633,-2.831836 v -0.340822 c 0,-1.005105 0.13604,-1.944695 0.40633,-2.818769 0.27925,-0.874074 0.69454,-1.638956 1.24587,-2.294466 0.54954,-0.655511 1.23154,-1.162449 2.04421,-1.520815 0.82164,-0.367136 1.78289,-0.550614 2.88554,-0.550614 1.16173,0 2.18922,0.222859 3.08065,0.668578 0.90039,0.445898 1.60388,1.088342 2.11046,1.92733 0.50658,0.830398 0.76076,1.831207 0.76076,3.002427 h -3.85574 c 0,-0.45467 -0.0823,-0.861006 -0.24882,-1.219372 -0.15751,-0.367137 -0.40095,-0.655511 -0.7339,-0.865303 -0.324,-0.218563 -0.72497,-0.327755 -1.20648,-0.327755 -0.49764,0 -0.90756,0.109195 -1.23155,0.327755 -0.31504,0.209792 -0.55491,0.502642 -0.72139,0.87837 -0.16647,0.375908 -0.27924,0.804083 -0.3401,1.284887 -0.0627,0.472032 -0.0931,0.974495 -0.0931,1.507747 v 0.340822 c 0,0.541844 0.0304,1.057553 0.0931,1.547128 0.0609,0.480624 0.17363,0.904504 0.3401,1.271641 0.17543,0.367136 0.41887,0.65551 0.73392,0.865303 0.31504,0.209792 0.73033,0.314688 1.24586,0.314688 z m 15.60195,-1.022647 c 0,-0.262241 -0.0842,-0.493871 -0.24881,-0.694891 -0.15753,-0.201022 -0.44572,-0.384501 -0.86639,-0.550616 -0.40991,-0.166115 -0.99168,-0.332051 -1.74349,-0.498166 -0.70706,-0.148573 -1.36758,-0.340822 -1.97978,-0.576929 -0.61219,-0.244698 -1.14383,-0.537547 -1.5985,-0.87837 -0.45467,-0.349594 -0.8091,-0.760407 -1.06328,-1.23244 -0.25239,-0.480623 -0.37948,-1.026942 -0.37948,-1.638776 0,-0.594292 0.12709,-1.158153 0.37948,-1.691225 0.26314,-0.533252 0.63904,-1.005284 1.12773,-1.415918 0.49942,-0.410813 1.10087,-0.734273 1.80971,-0.970199 0.71602,-0.236105 1.5287,-0.354069 2.43804,-0.354069 1.25123,0 2.33063,0.196725 3.23817,0.589995 0.90934,0.384499 1.60925,0.926523 2.09792,1.62571 0.49046,0.690417 0.73392,1.481433 0.73392,2.37305 h -4.09024 c 0,-0.367136 -0.0698,-0.686121 -0.20942,-0.957132 -0.13963,-0.270833 -0.35443,-0.480624 -0.64263,-0.629197 -0.28819,-0.157344 -0.66768,-0.236106 -1.14026,-0.236106 -0.36695,0 -0.69095,0.06552 -0.9702,0.196725 -0.27028,0.122256 -0.4851,0.29285 -0.64261,0.511234 -0.14858,0.218564 -0.22197,0.472032 -0.22197,0.760407 0,0.20102 0.0429,0.384679 0.13062,0.550794 0.0966,0.157165 0.23987,0.305738 0.4314,0.445719 0.20227,0.13103 0.46004,0.248993 0.77508,0.35389 0.32221,0.104901 0.71602,0.205496 1.17964,0.301621 0.98809,0.183477 1.88669,0.441422 2.70117,0.773474 0.82162,0.33223 1.47677,0.791016 1.96545,1.376716 0.49941,0.58552 0.74823,1.358995 0.74823,2.320422 0,0.629376 -0.14499,1.206305 -0.43319,1.730606 -0.27923,0.524481 -0.68558,0.983445 -1.219,1.376716 -0.53344,0.393271 -1.17069,0.699187 -1.91356,0.917751 -0.74465,0.218385 -1.58239,0.327756 -2.51857,0.327756 -1.33717,0 -2.46847,-0.240402 -3.3957,-0.721026 -0.92545,-0.480804 -1.62536,-1.083867 -2.09792,-1.809368 -0.46183,-0.734093 -0.69453,-1.485908 -0.69453,-2.255087 h 3.84141 c 0.0179,0.472033 0.13604,0.856711 0.35443,1.153857 0.22733,0.297146 0.5209,0.51571 0.8789,0.655511 0.35801,0.131031 0.76076,0.196724 1.20649,0.196724 0.44572,0 0.81625,-0.06121 1.1134,-0.183657 0.29714,-0.122256 0.52448,-0.288374 0.682,-0.498167 0.15753,-0.218563 0.23629,-0.467557 0.23629,-0.747339 z"
         fill="#ffffff"
         id="path15"
         style="stroke-width:1.79003" />
    </g>
  </g>
  <defs
     id="defs20">
    <clipPath
       id="clip0_2_56">
      <rect
         width="40"
         height="40"
         fill="white"
         id="rect17" />
    </clipPath>
  </defs>
</svg>
