<svg width="154" height="40" viewBox="0 0 154 40" fill="none" xmlns="http://www.w3.org/2000/svg">
<g clip-path="url(#clip0_2_56)">
<path fill-rule="evenodd" clip-rule="evenodd" d="M18.0056 0.396708L7.5486 4.72813C6.27158 5.25707 5.25707 6.27158 4.72813 7.5486L0.396708 18.0056C-0.132236 19.2826 -0.132236 20.7174 0.396708 21.9944L4.72813 32.4514C5.25707 33.7283 6.27158 34.7429 7.5486 35.2719L18.0056 39.6033C19.2826 40.1322 20.7174 40.1322 21.9944 39.6033L32.4514 35.2719C33.7283 34.7429 34.7429 33.7283 35.2719 32.4514L39.6033 21.9944C40.1322 20.7174 40.1322 19.2826 39.6033 18.0056L35.2719 7.5486C34.7429 6.27158 33.7283 5.25707 32.4514 4.72813L21.9944 0.396708C20.7174 -0.132236 19.2826 -0.132236 18.0056 0.396708ZM22.8641 26.969L27.6993 31.8042C23.0485 34.8444 16.9954 34.8524 12.3372 31.828L17.1789 26.9865C18.999 27.7204 21.0477 27.7146 22.8641 26.969ZM8.19569 12.3008L13.031 17.1361C12.26 19.0141 12.28 21.1405 13.0909 23.0057L8.27594 27.8205C5.14788 23.1421 5.12108 17.0044 8.19569 12.3008ZM31.7524 27.778L26.9305 22.956C27.7142 21.117 27.7329 19.0298 26.9865 17.1789L31.828 12.3372C34.8694 17.0217 34.8443 23.1169 31.7524 27.778ZM27.8206 8.27594L23.0057 13.0909C21.1099 12.2667 18.9442 12.2596 17.0438 13.0695L12.2218 8.24774C16.9355 5.12086 23.1158 5.13026 27.8206 8.27594Z" fill="white"/>
<mask id="mask0_2_56" style="mask-type:alpha" maskUnits="userSpaceOnUse" x="0" y="0" width="40" height="40">
<path d="M18.0056 0.396708C19.2826 -0.132236 20.7174 -0.132236 21.9944 0.396708L32.4514 4.72813C33.7283 5.25707 34.7429 6.27158 35.2719 7.5486L39.6033 18.0056C40.1322 19.2826 40.1322 20.7174 39.6033 21.9943L35.2719 32.4514C34.7429 33.7283 33.7283 34.7429 32.4514 35.2719L21.9944 39.6033C20.7174 40.1322 19.2826 40.1322 18.0056 39.6033L7.5486 35.2719C6.27158 34.7429 5.25707 33.7283 4.72813 32.4514L0.396708 21.9943C-0.132236 20.7174 -0.132236 19.2826 0.396708 18.0056L4.72813 7.5486C5.25707 6.27158 6.27158 5.25707 7.5486 4.72813L18.0056 0.396708ZM22.8641 26.969C21.0477 27.7146 18.999 27.7204 17.1789 26.9865L12.3372 31.828C16.9954 34.8524 23.0485 34.8444 27.6993 31.8042L22.8641 26.969ZM8.19569 12.3008C5.12108 17.0044 5.14788 23.142 8.27594 27.8205L13.0908 23.0057C12.28 21.1405 12.26 19.0141 13.0309 17.1361L8.19569 12.3008ZM31.828 12.3372L26.9865 17.1789C27.7328 19.0298 27.7142 21.117 26.9305 22.956L31.7524 27.778C34.8442 23.1169 34.8694 17.0217 31.828 12.3372ZM27.8205 8.27594C23.1158 5.13026 16.9355 5.12086 12.2218 8.24774L17.0438 13.0695C18.9442 12.2596 21.1099 12.2667 23.0057 13.0908L27.8205 8.27594Z" fill="white"/>
</mask>
<g mask="url(#mask0_2_56)">
<path fill-rule="evenodd" clip-rule="evenodd" d="M-0.192993 40.3252H40.3253V-0.193089H-0.192993V40.3252Z" fill="white"/>
</g>
</g>
<path d="M47.6875 24.5V12.125H51.9025C52.7475 12.125 53.48 12.275 54.1 12.575C54.725 12.87 55.2075 13.2975 55.5475 13.8575C55.8925 14.4125 56.065 15.0825 56.065 15.8675C56.065 16.4875 55.955 17.0475 55.735 17.5475C55.515 18.0425 55.2 18.46 54.79 18.8C54.38 19.14 53.8825 19.3925 53.2975 19.5575L57.3475 24.5H54.265L50.695 19.835H50.1175V24.5H47.6875ZM50.1175 17.81H51.1525C51.6575 17.81 52.085 17.7375 52.435 17.5925C52.785 17.4475 53.0525 17.235 53.2375 16.955C53.4275 16.67 53.5225 16.33 53.5225 15.935C53.5225 15.335 53.315 14.875 52.9 14.555C52.49 14.23 51.9075 14.0675 51.1525 14.0675H50.1175V17.81ZM62.1395 24.74C61.2945 24.74 60.532 24.5675 59.852 24.2225C59.172 23.8725 58.632 23.3925 58.232 22.7825C57.832 22.1675 57.632 21.46 57.632 20.66C57.632 19.86 57.8295 19.155 58.2245 18.545C58.6245 17.93 59.1645 17.45 59.8445 17.105C60.5295 16.755 61.2945 16.58 62.1395 16.58C62.9895 16.58 63.7545 16.755 64.4345 17.105C65.1145 17.45 65.652 17.93 66.047 18.545C66.447 19.155 66.647 19.86 66.647 20.66C66.647 21.46 66.447 22.1675 66.047 22.7825C65.652 23.3925 65.1145 23.8725 64.4345 24.2225C63.7545 24.5675 62.9895 24.74 62.1395 24.74ZM62.147 22.775C62.537 22.775 62.892 22.685 63.212 22.505C63.532 22.325 63.7845 22.0775 63.9695 21.7625C64.1545 21.4425 64.247 21.075 64.247 20.66C64.247 20.245 64.1545 19.88 63.9695 19.565C63.7845 19.245 63.532 18.995 63.212 18.815C62.892 18.635 62.537 18.545 62.147 18.545C61.752 18.545 61.3945 18.635 61.0745 18.815C60.7595 18.995 60.5095 19.245 60.3245 19.565C60.1395 19.88 60.047 20.245 60.047 20.66C60.047 21.075 60.1395 21.4425 60.3245 21.7625C60.5095 22.0775 60.7595 22.325 61.0745 22.505C61.3945 22.685 61.752 22.775 62.147 22.775ZM73.6881 24.74C73.1581 24.74 72.6606 24.63 72.1956 24.41C71.7306 24.19 71.3281 23.8825 70.9881 23.4875V24.5H68.6856V11.6H70.9881V17.7575C71.2931 17.3875 71.6756 17.1 72.1356 16.895C72.5956 16.685 73.0931 16.58 73.6281 16.58C74.3681 16.58 75.0281 16.76 75.6081 17.12C76.1881 17.475 76.6431 17.96 76.9731 18.575C77.3031 19.185 77.4681 19.88 77.4681 20.66C77.4681 21.455 77.2981 22.16 76.9581 22.775C76.6181 23.39 76.1606 23.8725 75.5856 24.2225C75.0156 24.5675 74.3831 24.74 73.6881 24.74ZM72.9981 22.7825C73.4031 22.7825 73.7581 22.6925 74.0631 22.5125C74.3681 22.3275 74.6081 22.0775 74.7831 21.7625C74.9581 21.4425 75.0456 21.08 75.0456 20.675C75.0456 20.265 74.9556 19.9 74.7756 19.58C74.5956 19.255 74.3531 19 74.0481 18.815C73.7431 18.63 73.3931 18.5375 72.9981 18.5375C72.6031 18.5375 72.2481 18.63 71.9331 18.815C71.6231 19 71.3781 19.2525 71.1981 19.5725C71.0181 19.8925 70.9281 20.26 70.9281 20.675C70.9281 21.08 71.0156 21.4425 71.1906 21.7625C71.3706 22.0775 71.6156 22.3275 71.9256 22.5125C72.2406 22.6925 72.5981 22.7825 72.9981 22.7825ZM83.3491 24.74C81.9491 24.74 80.9391 24.4625 80.3191 23.9075C79.6991 23.3525 79.3891 22.445 79.3891 21.185V16.82H81.6916V20.645C81.6916 21.455 81.8166 22.0275 82.0666 22.3625C82.3216 22.6975 82.7491 22.865 83.3491 22.865C83.9591 22.865 84.3866 22.6975 84.6316 22.3625C84.8816 22.0275 85.0066 21.455 85.0066 20.645V16.82H87.3091V21.185C87.3091 22.445 86.9991 23.3525 86.3791 23.9075C85.7641 24.4625 84.7541 24.74 83.3491 24.74ZM91.9544 24.74C91.3044 24.74 90.7219 24.6375 90.2069 24.4325C89.6969 24.2275 89.2719 23.9275 88.9319 23.5325L89.8994 21.9875C90.2194 22.3275 90.5544 22.5875 90.9044 22.7675C91.2544 22.9475 91.6044 23.0375 91.9544 23.0375C92.1494 23.0375 92.3169 23.005 92.4569 22.94C92.6019 22.875 92.7144 22.7825 92.7944 22.6625C92.8794 22.5375 92.9219 22.3875 92.9219 22.2125C92.9219 22.0125 92.8644 21.855 92.7494 21.74C92.6394 21.625 92.4694 21.52 92.2394 21.425C92.0094 21.325 91.7119 21.2 91.3469 21.05C91.0369 20.92 90.7394 20.7725 90.4544 20.6075C90.1694 20.4425 89.9369 20.2325 89.7569 19.9775C89.5819 19.7225 89.4944 19.4 89.4944 19.01C89.4944 18.535 89.6269 18.1175 89.8919 17.7575C90.1569 17.3925 90.5219 17.1075 90.9869 16.9025C91.4569 16.6975 91.9969 16.595 92.6069 16.595C92.9869 16.595 93.3844 16.6525 93.7994 16.7675C94.2194 16.8825 94.6669 17.0575 95.1419 17.2925L94.3544 18.77C93.7094 18.355 93.1319 18.1475 92.6219 18.1475C92.3369 18.1475 92.1094 18.21 91.9394 18.335C91.7694 18.46 91.6844 18.6175 91.6844 18.8075C91.6844 18.9875 91.7719 19.145 91.9469 19.28C92.1269 19.41 92.3444 19.5275 92.5994 19.6325C92.8594 19.7325 93.1069 19.825 93.3419 19.91C93.7269 20.05 94.0669 20.205 94.3619 20.375C94.6619 20.545 94.8969 20.7675 95.0669 21.0425C95.2369 21.3125 95.3219 21.675 95.3219 22.13C95.3219 22.685 95.1869 23.1575 94.9169 23.5475C94.6519 23.9325 94.2669 24.2275 93.7619 24.4325C93.2619 24.6375 92.6594 24.74 91.9544 24.74ZM99.9708 24.74C99.2058 24.74 98.6108 24.4975 98.1858 24.0125C97.7608 23.5225 97.5483 22.84 97.5483 21.965V18.5675H96.5208V16.82H97.5483V13.94H99.8508V16.82H101.538V18.5675H99.8508V21.8C99.8508 22.09 99.9083 22.31 100.023 22.46C100.143 22.61 100.311 22.685 100.526 22.685C100.766 22.685 100.996 22.605 101.216 22.445L101.793 24.29C101.533 24.43 101.241 24.54 100.916 24.62C100.596 24.7 100.281 24.74 99.9708 24.74ZM106.956 24.74C106.251 24.74 105.609 24.565 105.029 24.215C104.454 23.86 103.996 23.375 103.656 22.76C103.321 22.14 103.154 21.435 103.154 20.645C103.154 19.875 103.316 19.185 103.641 18.575C103.966 17.96 104.414 17.475 104.984 17.12C105.559 16.76 106.216 16.58 106.956 16.58C107.501 16.58 108.009 16.685 108.479 16.895C108.954 17.1 109.341 17.3875 109.641 17.7575V16.82H111.944V24.5H109.641V23.4875C109.291 23.8925 108.889 24.2025 108.434 24.4175C107.979 24.6325 107.486 24.74 106.956 24.74ZM107.639 22.7825C108.039 22.7825 108.394 22.6925 108.704 22.5125C109.014 22.3275 109.256 22.075 109.431 21.755C109.606 21.435 109.694 21.07 109.694 20.66C109.694 20.245 109.604 19.88 109.424 19.565C109.249 19.245 109.006 18.995 108.696 18.815C108.391 18.63 108.039 18.5375 107.639 18.5375C107.244 18.5375 106.891 18.63 106.581 18.815C106.271 18.995 106.026 19.245 105.846 19.565C105.666 19.885 105.576 20.25 105.576 20.66C105.576 21.07 105.664 21.435 105.839 21.755C106.019 22.075 106.264 22.3275 106.574 22.5125C106.884 22.6925 107.239 22.7825 107.639 22.7825Z" fill="white"/>
<path d="M124.255 25H121.912L121.926 23.1543H124.255C124.788 23.1543 125.237 23.0322 125.603 22.7881C125.969 22.5391 126.248 22.1729 126.438 21.6895C126.628 21.2012 126.724 20.6079 126.724 19.9097V19.4189C126.724 18.8916 126.67 18.4277 126.562 18.0273C126.455 17.6221 126.296 17.2827 126.086 17.0093C125.876 16.7358 125.615 16.5308 125.303 16.394C124.995 16.2573 124.641 16.189 124.241 16.189H121.868V14.3359H124.241C124.963 14.3359 125.623 14.458 126.218 14.7021C126.819 14.9463 127.336 15.2954 127.771 15.7495C128.21 16.2036 128.55 16.7407 128.789 17.3608C129.028 17.981 129.148 18.6719 129.148 19.4336V19.9097C129.148 20.6665 129.028 21.3574 128.789 21.9824C128.55 22.6025 128.21 23.1396 127.771 23.5938C127.336 24.043 126.821 24.3896 126.226 24.6338C125.63 24.8779 124.973 25 124.255 25ZM123.267 14.3359V25H120.879V14.3359H123.267ZM130.159 21.1182V20.9644C130.159 20.3833 130.242 19.8486 130.408 19.3604C130.574 18.8672 130.818 18.4399 131.14 18.0786C131.462 17.7173 131.858 17.4365 132.327 17.2363C132.795 17.0312 133.333 16.9287 133.938 16.9287C134.553 16.9287 135.095 17.0312 135.564 17.2363C136.038 17.4365 136.436 17.7173 136.758 18.0786C137.08 18.4399 137.324 18.8672 137.49 19.3604C137.656 19.8486 137.739 20.3833 137.739 20.9644V21.1182C137.739 21.6943 137.656 22.229 137.49 22.7222C137.324 23.2104 137.08 23.6377 136.758 24.0039C136.436 24.3652 136.04 24.646 135.571 24.8462C135.103 25.0464 134.563 25.1465 133.953 25.1465C133.347 25.1465 132.808 25.0464 132.334 24.8462C131.86 24.646 131.462 24.3652 131.14 24.0039C130.818 23.6377 130.574 23.2104 130.408 22.7222C130.242 22.229 130.159 21.6943 130.159 21.1182ZM132.451 20.9644V21.1182C132.451 21.4307 132.476 21.7236 132.524 21.9971C132.578 22.2705 132.664 22.5098 132.781 22.7148C132.898 22.9199 133.052 23.0811 133.242 23.1982C133.438 23.3105 133.674 23.3667 133.953 23.3667C134.231 23.3667 134.465 23.3105 134.656 23.1982C134.846 23.0811 135 22.9199 135.117 22.7148C135.234 22.5098 135.317 22.2705 135.366 21.9971C135.42 21.7236 135.447 21.4307 135.447 21.1182V20.9644C135.447 20.6567 135.42 20.3687 135.366 20.1001C135.317 19.8267 135.234 19.585 135.117 19.375C135 19.165 134.844 19.0015 134.648 18.8843C134.458 18.7671 134.221 18.7085 133.938 18.7085C133.665 18.7085 133.433 18.7671 133.242 18.8843C133.052 19.0015 132.898 19.165 132.781 19.375C132.664 19.585 132.578 19.8267 132.524 20.1001C132.476 20.3687 132.451 20.6567 132.451 20.9644ZM142.251 23.3667C142.495 23.3667 142.708 23.3203 142.888 23.2275C143.069 23.1348 143.208 23.0054 143.306 22.8394C143.408 22.6685 143.459 22.4634 143.459 22.2241H145.613C145.613 22.8003 145.464 23.3081 145.166 23.7476C144.873 24.187 144.478 24.5312 143.979 24.7803C143.481 25.0244 142.92 25.1465 142.295 25.1465C141.68 25.1465 141.143 25.0464 140.684 24.8462C140.225 24.6411 139.841 24.3555 139.534 23.9893C139.226 23.623 138.994 23.1982 138.838 22.7148C138.687 22.2266 138.611 21.6992 138.611 21.1328V20.9424C138.611 20.3809 138.687 19.856 138.838 19.3677C138.994 18.8794 139.226 18.4521 139.534 18.0859C139.841 17.7197 140.222 17.4365 140.676 17.2363C141.135 17.0312 141.672 16.9287 142.288 16.9287C142.937 16.9287 143.511 17.0532 144.009 17.3022C144.512 17.5513 144.905 17.9102 145.188 18.3789C145.471 18.8428 145.613 19.4019 145.613 20.0562H143.459C143.459 19.8022 143.413 19.5752 143.32 19.375C143.232 19.1699 143.096 19.0088 142.91 18.8916C142.729 18.7695 142.505 18.7085 142.236 18.7085C141.958 18.7085 141.729 18.7695 141.548 18.8916C141.372 19.0088 141.238 19.1724 141.145 19.3823C141.052 19.5923 140.989 19.8315 140.955 20.1001C140.92 20.3638 140.903 20.6445 140.903 20.9424V21.1328C140.903 21.4355 140.92 21.7236 140.955 21.9971C140.989 22.2656 141.052 22.5024 141.145 22.7075C141.243 22.9126 141.379 23.0737 141.555 23.1909C141.731 23.3081 141.963 23.3667 142.251 23.3667ZM150.967 22.7954C150.967 22.6489 150.92 22.5195 150.828 22.4072C150.74 22.2949 150.579 22.1924 150.344 22.0996C150.115 22.0068 149.79 21.9141 149.37 21.8213C148.975 21.7383 148.606 21.6309 148.264 21.499C147.922 21.3623 147.625 21.1987 147.371 21.0083C147.117 20.813 146.919 20.5835 146.777 20.3198C146.636 20.0513 146.565 19.7461 146.565 19.4043C146.565 19.0723 146.636 18.7573 146.777 18.4595C146.924 18.1616 147.134 17.8979 147.407 17.6685C147.686 17.439 148.022 17.2583 148.418 17.1265C148.818 16.9946 149.272 16.9287 149.78 16.9287C150.479 16.9287 151.082 17.0386 151.589 17.2583C152.097 17.4731 152.488 17.7759 152.761 18.1665C153.035 18.5522 153.171 18.9941 153.171 19.4922H150.886C150.886 19.2871 150.847 19.1089 150.769 18.9575C150.691 18.8062 150.571 18.689 150.41 18.606C150.249 18.5181 150.037 18.4741 149.773 18.4741C149.568 18.4741 149.387 18.5107 149.231 18.584C149.08 18.6523 148.96 18.7476 148.872 18.8696C148.789 18.9917 148.748 19.1333 148.748 19.2944C148.748 19.4067 148.772 19.5093 148.821 19.6021C148.875 19.6899 148.955 19.7729 149.062 19.8511C149.175 19.9243 149.319 19.9902 149.495 20.0488C149.675 20.1074 149.895 20.1636 150.154 20.2173C150.706 20.3198 151.208 20.4639 151.663 20.6494C152.122 20.835 152.488 21.0913 152.761 21.4185C153.04 21.7456 153.179 22.1777 153.179 22.7148C153.179 23.0664 153.098 23.3887 152.937 23.6816C152.781 23.9746 152.554 24.231 152.256 24.4507C151.958 24.6704 151.602 24.8413 151.187 24.9634C150.771 25.0854 150.303 25.1465 149.78 25.1465C149.033 25.1465 148.401 25.0122 147.883 24.7437C147.366 24.4751 146.975 24.1382 146.711 23.7329C146.453 23.3228 146.323 22.9028 146.323 22.4731H148.469C148.479 22.7368 148.545 22.9517 148.667 23.1177C148.794 23.2837 148.958 23.4058 149.158 23.4839C149.358 23.5571 149.583 23.5938 149.832 23.5938C150.081 23.5938 150.288 23.5596 150.454 23.4912C150.62 23.4229 150.747 23.3301 150.835 23.2129C150.923 23.0908 150.967 22.9517 150.967 22.7954Z" fill="white"/>
<defs>
<clipPath id="clip0_2_56">
<rect width="40" height="40" fill="white"/>
</clipPath>
</defs>
</svg>
