<?xml version="1.0" encoding="UTF-8" standalone="no"?>
<svg
   width="224"
   height="39.999973"
   viewBox="0 0 224 39.999973"
   fill="none"
   version="1.1"
   id="svg22"
   sodipodi:docname="logo_docs_big.svg"
   inkscape:version="1.2.1 (9c6d41e410, 2022-07-14, custom)"
   xmlns:inkscape="http://www.inkscape.org/namespaces/inkscape"
   xmlns:sodipodi="http://sodipodi.sourceforge.net/DTD/sodipodi-0.dtd"
   xmlns="http://www.w3.org/2000/svg"
   xmlns:svg="http://www.w3.org/2000/svg">
  <sodipodi:namedview
     id="namedview24"
     pagecolor="#ffffff"
     bordercolor="#000000"
     borderopacity="0.25"
     inkscape:showpageshadow="2"
     inkscape:pageopacity="0.0"
     inkscape:pagecheckerboard="0"
     inkscape:deskcolor="#d1d1d1"
     showgrid="false"
     inkscape:zoom="3.0373451"
     inkscape:cx="133.34013"
     inkscape:cy="-18.437154"
     inkscape:window-width="1465"
     inkscape:window-height="752"
     inkscape:window-x="324"
     inkscape:window-y="228"
     inkscape:window-maximized="0"
     inkscape:current-layer="svg22"
     showguides="true">
    <sodipodi:guide
       position="245.41102,90.529371"
       orientation="0,-1"
       id="guide298"
       inkscape:locked="false" />
  </sodipodi:namedview>
  <g
     clip-path="url(#clip0_2_56)"
     id="g11"
     transform="matrix(0.98705093,0,0,0.98705093,1.3978417,0.25898121)">
    <path
       fill-rule="evenodd"
       clip-rule="evenodd"
       d="M 18.0056,0.396708 7.5486,4.72813 C 6.27158,5.25707 5.25707,6.27158 4.72813,7.5486 l -4.331422,10.457 c -0.528944,1.277 -0.528944,2.7118 0,3.9888 l 4.331422,10.457 c 0.52894,1.2769 1.54345,2.2915 2.82047,2.8205 l 10.457,4.3314 c 1.277,0.5289 2.7118,0.5289 3.9888,0 l 10.457,-4.3314 c 1.2769,-0.529 2.2915,-1.5436 2.8205,-2.8205 l 4.3314,-10.457 c 0.5289,-1.277 0.5289,-2.7118 0,-3.9888 L 35.2719,7.5486 C 34.7429,6.27158 33.7283,5.25707 32.4514,4.72813 L 21.9944,0.396708 c -1.277,-0.528944 -2.7118,-0.528944 -3.9888,0 z m 4.8585,26.572292 4.8352,4.8352 c -4.6508,3.0402 -10.7039,3.0482 -15.3621,0.0238 l 4.8417,-4.8415 c 1.8201,0.7339 3.8688,0.7281 5.6852,-0.0175 z M 8.19569,12.3008 13.031,17.1361 c -0.771,1.878 -0.751,4.0044 0.0599,5.8696 L 8.27594,27.8205 C 5.14788,23.1421 5.12108,17.0044 8.19569,12.3008 Z M 31.7524,27.778 26.9305,22.956 c 0.7837,-1.839 0.8024,-3.9262 0.056,-5.7771 l 4.8415,-4.8417 c 3.0414,4.6845 3.0163,10.7797 -0.0756,15.4408 z M 27.8206,8.27594 23.0057,13.0909 c -1.8958,-0.8242 -4.0615,-0.8313 -5.9619,-0.0214 l -4.822,-4.82176 c 4.7137,-3.12688 10.894,-3.11748 15.5988,0.0282 z"
       fill="#ffffff"
       id="path2" />
    <mask
       id="mask0_2_56"
       maskUnits="userSpaceOnUse"
       x="0"
       y="0"
       width="40"
       height="40">
      <path
         d="m 18.0056,0.396708 c 1.277,-0.528944 2.7118,-0.528944 3.9888,0 l 10.457,4.331422 c 1.2769,0.52894 2.2915,1.54345 2.8205,2.82047 l 4.3314,10.457 c 0.5289,1.277 0.5289,2.7118 0,3.9887 l -4.3314,10.4571 c -0.529,1.2769 -1.5436,2.2915 -2.8205,2.8205 l -10.457,4.3314 c -1.277,0.5289 -2.7118,0.5289 -3.9888,0 L 7.5486,35.2719 C 6.27158,34.7429 5.25707,33.7283 4.72813,32.4514 L 0.396708,21.9943 c -0.528944,-1.2769 -0.528944,-2.7117 0,-3.9887 L 4.72813,7.5486 C 5.25707,6.27158 6.27158,5.25707 7.5486,4.72813 Z M 22.8641,26.969 c -1.8164,0.7456 -3.8651,0.7514 -5.6852,0.0175 l -4.8417,4.8415 c 4.6582,3.0244 10.7113,3.0164 15.3621,-0.0238 z M 8.19569,12.3008 C 5.12108,17.0044 5.14788,23.142 8.27594,27.8205 L 13.0908,23.0057 C 12.28,21.1405 12.26,19.0141 13.0309,17.1361 Z m 23.63231,0.0364 -4.8415,4.8417 c 0.7463,1.8509 0.7277,3.9381 -0.056,5.7771 l 4.8219,4.822 c 3.0918,-4.6611 3.117,-10.7563 0.0756,-15.4408 z M 27.8205,8.27594 C 23.1158,5.13026 16.9355,5.12086 12.2218,8.24774 l 4.822,4.82176 c 1.9004,-0.8099 4.0661,-0.8028 5.9619,0.0213 z"
         fill="#ffffff"
         id="path4" />
    </mask>
    <g
       mask="url(#mask0_2_56)"
       id="g9">
      <path
         fill-rule="evenodd"
         clip-rule="evenodd"
         d="M -0.192993,40.3252 H 40.3253 V -0.193089 H -0.192993 Z"
         fill="#ffffff"
         id="path7" />
    </g>
  </g>
  <path
     d="M 46.955901,30.317497 V 9.4778733 h 7.098102 c 1.422988,0 2.656526,0.2526015 3.700612,0.7578047 1.052506,0.496783 1.865041,1.216697 2.437604,2.159743 0.580984,0.934625 0.871476,2.062912 0.871476,3.38486 0,1.044086 -0.185241,1.987131 -0.555724,2.829136 -0.370482,0.833585 -0.900945,1.53666 -1.591389,2.109223 -0.690444,0.572563 -1.528239,0.997776 -2.513385,1.275638 l 6.82024,8.323219 h -5.19096 L 52.020561,22.46159 h -0.972516 v 7.855907 z M 51.048045,19.05147 h 1.742951 c 0.850425,0 1.570339,-0.122091 2.159742,-0.366272 0.589404,-0.244182 1.039877,-0.602034 1.351418,-1.073556 0.319962,-0.479943 0.479943,-1.052507 0.479943,-1.717691 0,-1.010406 -0.349432,-1.78505 -1.048296,-2.323933 -0.690444,-0.547304 -1.67138,-0.820955 -2.942807,-0.820955 h -1.742951 z m 20.245168,11.670189 c -1.422988,0 -2.707046,-0.290491 -3.852172,-0.871475 -1.145127,-0.589403 -2.054493,-1.397728 -2.728097,-2.424974 -0.673604,-1.035666 -1.010406,-2.227103 -1.010406,-3.574311 0,-1.347208 0.332592,-2.534435 0.997776,-3.561682 0.673604,-1.035666 1.58297,-1.84399 2.728096,-2.424974 1.153547,-0.589403 2.441815,-0.884105 3.864803,-0.884105 1.431409,0 2.719677,0.294702 3.864803,0.884105 1.145127,0.580983 2.050283,1.389308 2.715466,2.424974 0.673604,1.027247 1.010406,2.214474 1.010406,3.561682 0,1.347208 -0.336802,2.538645 -1.010406,3.574311 -0.665183,1.027246 -1.570339,1.835571 -2.715466,2.424974 -1.145126,0.580984 -2.433394,0.871475 -3.864803,0.871475 z m 0.01263,-3.309079 c 0.656764,0 1.254588,-0.151561 1.793471,-0.454683 0.538883,-0.303122 0.964096,-0.719914 1.275638,-1.250377 0.311542,-0.538884 0.467312,-1.157757 0.467312,-1.856621 0,-0.698865 -0.15577,-1.313528 -0.467312,-1.843991 -0.311542,-0.538884 -0.736755,-0.959886 -1.275638,-1.263008 -0.538883,-0.303122 -1.136707,-0.454683 -1.793471,-0.454683 -0.665183,0 -1.267217,0.151561 -1.8061,0.454683 -0.530463,0.303122 -0.951466,0.724124 -1.263008,1.263008 -0.311542,0.530463 -0.467313,1.145126 -0.467313,1.843991 0,0.698864 0.155771,1.317737 0.467313,1.856621 0.311542,0.530463 0.732545,0.947255 1.263008,1.250377 0.538883,0.303122 1.140917,0.454683 1.8061,0.454683 z m 19.435328,3.309079 c -0.892525,0 -1.73032,-0.185241 -2.513385,-0.555723 -0.783064,-0.370482 -1.460878,-0.888315 -2.033442,-1.553499 v 1.70506 H 82.316911 V 8.593768 h 3.877433 V 18.96306 c 0.513623,-0.623084 1.157757,-1.107237 1.932402,-1.452459 0.774644,-0.353642 1.612439,-0.530463 2.513385,-0.530463 1.246167,0 2.357614,0.303122 3.334339,0.909365 0.976726,0.597824 1.742951,1.414569 2.298674,2.450235 0.555723,1.027246 0.833585,2.197633 0.833585,3.511161 0,1.338788 -0.286282,2.526015 -0.858845,3.561681 -0.572563,1.035666 -1.342998,1.848201 -2.311304,2.437604 -0.959885,0.580984 -2.025022,0.871475 -3.195409,0.871475 z M 89.579204,27.42521 c 0.682024,0 1.279848,-0.151561 1.793471,-0.454683 0.513623,-0.311542 0.917785,-0.732544 1.212487,-1.263007 0.294702,-0.538884 0.442053,-1.149337 0.442053,-1.831361 0,-0.690444 -0.151561,-1.305108 -0.454683,-1.843991 -0.303122,-0.547303 -0.711494,-0.976726 -1.225117,-1.288268 -0.513623,-0.311542 -1.103027,-0.467313 -1.768211,-0.467313 -0.665184,0 -1.263007,0.155771 -1.79347,0.467313 -0.522043,0.311542 -0.934626,0.736755 -1.237748,1.275638 -0.303121,0.538883 -0.454682,1.157757 -0.454682,1.856621 0,0.682024 0.147351,1.292477 0.442052,1.831361 0.303122,0.530463 0.715705,0.951465 1.237748,1.263007 0.530463,0.303122 1.132496,0.454683 1.8061,0.454683 z m 17.431186,3.296449 c -2.35761,0 -4.05846,-0.467312 -5.10255,-1.401938 -1.04408,-0.934625 -1.56613,-2.462865 -1.56613,-4.584717 V 17.3843 h 3.87744 v 6.441338 c 0,1.364049 0.2105,2.328144 0.6315,2.892288 0.42942,0.564143 1.14934,0.846215 2.15974,0.846215 1.02725,0 1.74716,-0.282072 2.15974,-0.846215 0.42101,-0.564144 0.63151,-1.528239 0.63151,-2.892288 V 17.3843 h 3.87743 v 7.350704 c 0,2.121852 -0.52204,3.650092 -1.56613,4.584717 -1.03566,0.934626 -2.73651,1.401938 -5.10255,1.401938 z m 14.49141,0 c -1.0946,0 -2.07554,-0.172611 -2.9428,-0.517833 -0.85885,-0.345222 -1.57455,-0.850425 -2.14712,-1.515609 l 1.62928,-2.601795 c 0.53889,0.572563 1.10303,1.010406 1.69243,1.313528 0.58941,0.303121 1.17881,0.454682 1.76821,0.454682 0.32839,0 0.61046,-0.05473 0.84622,-0.164191 0.24418,-0.10946 0.43363,-0.265231 0.56835,-0.467312 0.14314,-0.210502 0.21471,-0.463103 0.21471,-0.757805 0,-0.336802 -0.0968,-0.602033 -0.29049,-0.795695 -0.18524,-0.193661 -0.47152,-0.370482 -0.85884,-0.530463 -0.38733,-0.168401 -0.88832,-0.378902 -1.50298,-0.631504 -0.52205,-0.218921 -1.02304,-0.467312 -1.50298,-0.745174 -0.47994,-0.277862 -0.87148,-0.631504 -1.1746,-1.060926 -0.2947,-0.429423 -0.44205,-0.972516 -0.44205,-1.62928 0,-0.799905 0.22313,-1.502979 0.66939,-2.109222 0.44627,-0.614664 1.06093,-1.094607 1.84399,-1.439829 0.79149,-0.345222 1.70085,-0.517833 2.7281,-0.517833 0.63992,0 1.30932,0.09683 2.00818,0.290492 0.70729,0.193661 1.46088,0.488363 2.26079,0.884105 l -1.32616,2.488125 c -1.08619,-0.698864 -2.05871,-1.048297 -2.91755,-1.048297 -0.47994,0 -0.86306,0.105251 -1.14934,0.315752 -0.28628,0.210502 -0.42942,0.475733 -0.42942,0.795695 0,0.303122 0.14735,0.568353 0.44205,0.795695 0.30312,0.218921 0.6694,0.416792 1.09882,0.593613 0.43784,0.168401 0.85463,0.324172 1.25038,0.467313 0.64834,0.235762 1.2209,0.496783 1.71769,0.783065 0.5052,0.286281 0.90094,0.660974 1.18722,1.124076 0.28629,0.454683 0.42943,1.065137 0.42943,1.831361 0,0.934626 -0.22734,1.730321 -0.68203,2.387084 -0.44626,0.648344 -1.0946,1.145127 -1.94503,1.490349 -0.842,0.345222 -1.85662,0.517833 -3.04385,0.517833 z m 13.4997,0 c -1.28827,0 -2.29025,-0.408372 -3.00596,-1.225117 -0.7157,-0.825165 -1.07355,-1.974502 -1.07355,-3.44801 v -5.721424 h -1.73032 V 17.3843 h 1.73032 v -4.849949 h 3.87743 V 17.3843 h 2.84126 v 2.942808 h -2.84126 v 5.443562 c 0,0.488363 0.0968,0.858845 0.28999,1.111447 0.20208,0.252601 0.48499,0.378902 0.84705,0.378902 0.40417,0 0.79149,-0.134721 1.16197,-0.404163 l 0.97167,3.106999 c -0.43784,0.235761 -0.92957,0.421002 -1.47687,0.555723 -0.53889,0.134721 -1.06935,0.202081 -1.59173,0.202081 z m 11.76315,0 c -1.18723,0 -2.26836,-0.294701 -3.24509,-0.884105 -0.96831,-0.597823 -1.73958,-1.414568 -2.31215,-2.450234 -0.56414,-1.044087 -0.84537,-2.231314 -0.84537,-3.561682 0,-1.296687 0.27281,-2.458654 0.82011,-3.4859 0.54731,-1.035666 1.30174,-1.852411 2.26163,-2.450235 0.96831,-0.606243 2.0747,-0.909365 3.32087,-0.909365 0.91778,0 1.77326,0.176821 2.56474,0.530463 0.79991,0.345222 1.45162,0.829375 1.95682,1.452459 V 17.3843 h 3.87828 v 12.933197 h -3.87828 v -1.70506 c -0.5894,0.682024 -1.26637,1.204067 -2.0326,1.566129 -0.76622,0.362062 -1.59644,0.543093 -2.48896,0.543093 z m 1.15018,-3.296449 c 0.6736,0 1.27142,-0.151561 1.79347,-0.454683 0.52204,-0.311542 0.92957,-0.736754 1.22427,-1.275637 0.2947,-0.538884 0.4429,-1.153547 0.4429,-1.843991 0,-0.698865 -0.15156,-1.313528 -0.45469,-1.843991 -0.2947,-0.538884 -0.70391,-0.959886 -1.22596,-1.263008 -0.51362,-0.311542 -1.10639,-0.467313 -1.77999,-0.467313 -0.66519,0 -1.25964,0.155771 -1.78169,0.467313 -0.52204,0.303122 -0.93462,0.724124 -1.23774,1.263008 -0.30313,0.538883 -0.45469,1.153546 -0.45469,1.843991 0,0.690444 0.1482,1.305107 0.4429,1.843991 0.30312,0.538883 0.7157,0.964095 1.23775,1.275637 0.52204,0.303122 1.11986,0.454683 1.79347,0.454683 z"
     fill="#ffffff"
     id="path13"
     style="stroke-width:1.68401" />
  <path
     d="m 171.79228,30.474952 h -3.94564 l 0.0236,-3.108177 h 3.92206 c 0.89757,0 1.65369,-0.205618 2.27004,-0.616685 0.61635,-0.419318 1.08619,-1.036003 1.40615,-1.850053 0.31996,-0.822302 0.48163,-1.821425 0.48163,-2.997201 v -0.826512 c 0,-0.887979 -0.0909,-1.669191 -0.27281,-2.343469 -0.18019,-0.68236 -0.44795,-1.253913 -0.80159,-1.714322 -0.35364,-0.460577 -0.79317,-0.805799 -1.31858,-1.036171 -0.51868,-0.230204 -1.11482,-0.345222 -1.78842,-0.345222 h -3.99616 v -3.120639 h 3.99616 c 1.21586,0 2.3273,0.205618 3.32929,0.616684 1.01209,0.411236 1.88272,0.999123 2.61527,1.763832 0.73928,0.764709 1.31184,1.669191 1.71432,2.713446 0.40248,1.044423 0.60456,2.207905 0.60456,3.490616 v 0.801757 c 0,1.274459 -0.20208,2.437941 -0.60456,3.490447 -0.40248,1.044255 -0.97504,1.948737 -1.71432,2.713614 -0.73255,0.756457 -1.59981,1.340135 -2.6018,1.75137 -1.00367,0.411067 -2.11006,0.616685 -3.31918,0.616685 z m -1.66381,-17.958451 v 17.958451 h -4.02141 V 12.516501 Z m 11.6062,11.421461 v -0.259001 c 0,-0.978578 0.13977,-1.879018 0.41932,-2.701152 0.27955,-0.830554 0.69044,-1.550131 1.2327,-2.158564 0.54225,-0.608433 1.20911,-1.081303 1.99892,-1.418442 0.78811,-0.34539 1.69411,-0.518001 2.71294,-0.518001 1.03566,0 1.94839,0.172611 2.7382,0.518001 0.79822,0.337139 1.46845,0.810009 2.0107,1.418442 0.54225,0.608433 0.95315,1.32801 1.2327,2.158564 0.27954,0.822134 0.41932,1.722574 0.41932,2.701152 v 0.259001 c 0,0.970158 -0.13978,1.870598 -0.41932,2.701152 -0.27955,0.822134 -0.69045,1.541711 -1.2327,2.158396 -0.54225,0.608432 -1.20912,1.081302 -1.99892,1.418441 -0.78811,0.337139 -1.69748,0.505708 -2.72472,0.505708 -1.02051,0 -1.9282,-0.168569 -2.72642,-0.505708 -0.79822,-0.337139 -1.46845,-0.810009 -2.0107,-1.418441 -0.54226,-0.616685 -0.95315,-1.336262 -1.2327,-2.158396 -0.27955,-0.830554 -0.41932,-1.730994 -0.41932,-2.701152 z m 3.85975,-0.259001 v 0.259001 c 0,0.526253 0.0421,1.0195 0.12294,1.480076 0.0909,0.460409 0.23576,0.863392 0.43279,1.208614 0.19702,0.345391 0.45636,0.616853 0.77632,0.814051 0.33007,0.189114 0.7275,0.283755 1.19734,0.283755 0.46815,0 0.86221,-0.09464 1.18385,-0.283755 0.31997,-0.197198 0.5793,-0.46866 0.77633,-0.814051 0.19703,-0.345222 0.33681,-0.748205 0.41932,-1.208614 0.0909,-0.460576 0.13641,-0.953823 0.13641,-1.480076 v -0.259001 c 0,-0.51817 -0.0455,-1.003165 -0.13641,-1.45549 -0.0825,-0.460408 -0.22229,-0.867433 -0.41932,-1.221075 -0.19703,-0.353642 -0.45973,-0.628978 -0.7898,-0.826344 -0.31996,-0.197366 -0.71907,-0.296049 -1.19564,-0.296049 -0.45974,0 -0.85043,0.09868 -1.17208,0.296049 -0.31996,0.197366 -0.5793,0.472702 -0.77632,0.826344 -0.19703,0.353642 -0.34186,0.760667 -0.43279,1.221075 -0.0808,0.452325 -0.12294,0.93732 -0.12294,1.45549 z m 16.5033,4.045497 c 0.4109,0 0.76959,-0.07814 1.07271,-0.234414 0.30481,-0.156108 0.53889,-0.374018 0.70392,-0.653564 0.17177,-0.287797 0.25765,-0.633188 0.25765,-1.036171 h 3.62736 c 0,0.970326 -0.25092,1.825466 -0.75275,2.565589 -0.49342,0.739954 -1.1586,1.31959 -1.99892,1.739077 -0.83864,0.411067 -1.78337,0.616684 -2.83587,0.616684 -1.03567,0 -1.93998,-0.168569 -2.71294,-0.505708 -0.77296,-0.34539 -1.41962,-0.826344 -1.93661,-1.443028 -0.51868,-0.616853 -0.90937,-1.33222 -1.17208,-2.146271 -0.25428,-0.822133 -0.38227,-1.71028 -0.38227,-2.664104 v -0.320635 c 0,-0.945572 0.12799,-1.829509 0.38227,-2.651811 0.26271,-0.822302 0.6534,-1.541879 1.17208,-2.158564 0.51699,-0.616684 1.15859,-1.093596 1.92313,-1.430735 0.77297,-0.34539 1.67728,-0.518001 2.71463,-0.518001 1.09292,0 2.05954,0.209659 2.89818,0.628978 0.84706,0.419487 1.50887,1.023878 1.98545,1.813173 0.47657,0.781213 0.7157,1.722743 0.7157,2.82459 H 204.132 c 0,-0.427738 -0.0775,-0.810009 -0.23407,-1.147147 -0.1482,-0.345391 -0.37722,-0.616685 -0.69045,-0.814051 -0.3048,-0.205617 -0.68202,-0.308342 -1.13502,-0.308342 -0.46815,0 -0.85379,0.102725 -1.1586,0.308342 -0.29638,0.197366 -0.52204,0.47287 -0.67865,0.826344 -0.15662,0.353642 -0.26271,0.756457 -0.31997,1.208782 -0.0589,0.444074 -0.0876,0.916775 -0.0876,1.418442 v 0.320635 c 0,0.50975 0.0286,0.994914 0.0876,1.45549 0.0573,0.452157 0.16335,0.850931 0.31997,1.196321 0.16503,0.34539 0.39405,0.616684 0.69044,0.81405 0.29639,0.197366 0.68708,0.296049 1.17207,0.296049 z m 14.67783,-0.962075 c 0,-0.246707 -0.0791,-0.464618 -0.23408,-0.653732 -0.14819,-0.189115 -0.41931,-0.361726 -0.81506,-0.518002 -0.38563,-0.156276 -0.93294,-0.312384 -1.64022,-0.46866 -0.66519,-0.139772 -1.28659,-0.320635 -1.86252,-0.542756 -0.57593,-0.230204 -1.07608,-0.505708 -1.50382,-0.826344 -0.42774,-0.328887 -0.76117,-0.715367 -1.0003,-1.159441 -0.23745,-0.452156 -0.35701,-0.966116 -0.35701,-1.541711 0,-0.559091 0.11956,-1.089554 0.35701,-1.591052 0.24755,-0.501667 0.60119,-0.94574 1.06093,-1.332052 0.46983,-0.386481 1.03566,-0.690781 1.70253,-0.912734 0.6736,-0.222121 1.43814,-0.333097 2.29362,-0.333097 1.17712,0 2.19258,0.185073 3.04638,0.55505 0.85547,0.361725 1.51392,0.871643 1.97366,1.529418 0.46141,0.649522 0.69044,1.393686 0.69044,2.232492 h -3.84796 c 0,-0.345391 -0.0657,-0.645481 -0.19703,-0.90044 -0.13136,-0.254791 -0.33344,-0.452157 -0.60456,-0.59193 -0.27113,-0.148024 -0.62814,-0.222121 -1.07272,-0.222121 -0.34522,0 -0.65002,0.06163 -0.91273,0.185073 -0.25429,0.115018 -0.45637,0.275504 -0.60456,0.480953 -0.13977,0.205618 -0.20882,0.444073 -0.20882,0.715367 0,0.189115 0.0404,0.361894 0.12294,0.51817 0.0909,0.147856 0.22565,0.287629 0.40584,0.419319 0.1903,0.123269 0.43279,0.234246 0.72918,0.332929 0.30312,0.09868 0.6736,0.193324 1.10976,0.283755 0.92958,0.172611 1.77495,0.415277 2.54117,0.727661 0.77296,0.312552 1.38931,0.744164 1.84905,1.295172 0.46983,0.55084 0.70391,1.278501 0.70391,2.182982 0,0.592098 -0.1364,1.134855 -0.40753,1.628101 -0.2627,0.493415 -0.64497,0.925195 -1.14681,1.295172 -0.50183,0.369977 -1.10134,0.657775 -1.80021,0.863392 -0.70054,0.205449 -1.48866,0.308342 -2.3694,0.308342 -1.25795,0 -2.32225,-0.226162 -3.19457,-0.678319 -0.87063,-0.452325 -1.52908,-1.019668 -1.97365,-1.702197 -0.43448,-0.690613 -0.6534,-1.397897 -0.6534,-2.121516 h 3.61388 c 0.0168,0.444074 0.12799,0.805967 0.33344,1.085513 0.21387,0.279546 0.49005,0.485163 0.82685,0.616684 0.3368,0.12327 0.7157,0.185073 1.13502,0.185073 0.41932,0 0.76791,-0.05759 1.04745,-0.172779 0.27955,-0.115018 0.49342,-0.271294 0.64161,-0.46866 0.1482,-0.205618 0.22229,-0.439864 0.22229,-0.703075 z"
     fill="#ffffff"
     id="path15"
     style="stroke-width:1.68401" />
  <defs
     id="defs20">
    <clipPath
       id="clip0_2_56">
      <rect
         width="40"
         height="40"
         fill="#ffffff"
         id="rect17"
         x="0"
         y="0" />
    </clipPath>
  </defs>
</svg>
