<?xml version="1.0" encoding="UTF-8" standalone="no"?>
<svg
   width="39.482014"
   height="39.482014"
   viewBox="0 0 39.482013 39.482013"
   fill="none"
   version="1.1"
   id="svg22"
   sodipodi:docname="logo_docs_big.svg"
   inkscape:version="1.2.1 (9c6d41e410, 2022-07-14, custom)"
   xmlns:inkscape="http://www.inkscape.org/namespaces/inkscape"
   xmlns:sodipodi="http://sodipodi.sourceforge.net/DTD/sodipodi-0.dtd"
   xmlns="http://www.w3.org/2000/svg"
   xmlns:svg="http://www.w3.org/2000/svg">
  <sodipodi:namedview
     id="namedview24"
     pagecolor="#ffffff"
     bordercolor="#000000"
     borderopacity="0.25"
     inkscape:showpageshadow="2"
     inkscape:pageopacity="0.0"
     inkscape:pagecheckerboard="0"
     inkscape:deskcolor="#d1d1d1"
     showgrid="false"
     inkscape:zoom="3.0373451"
     inkscape:cx="136.7971"
     inkscape:cy="-18.272537"
     inkscape:window-width="1920"
     inkscape:window-height="1053"
     inkscape:window-x="0"
     inkscape:window-y="27"
     inkscape:window-maximized="1"
     inkscape:current-layer="svg22"
     showguides="true">
    <sodipodi:guide
       position="244.01318,90.270392"
       orientation="0,-1"
       id="guide298"
       inkscape:locked="false" />
  </sodipodi:namedview>
  <g
     clip-path="url(#clip0_2_56)"
     id="g11"
     transform="scale(0.98705093)"
     inkscape:export-filename="robustalogo.svg"
     inkscape:export-xdpi="96"
     inkscape:export-ydpi="96">
    <path
       fill-rule="evenodd"
       clip-rule="evenodd"
       d="M 18.0056,0.396708 7.5486,4.72813 C 6.27158,5.25707 5.25707,6.27158 4.72813,7.5486 l -4.331422,10.457 c -0.528944,1.277 -0.528944,2.7118 0,3.9888 l 4.331422,10.457 c 0.52894,1.2769 1.54345,2.2915 2.82047,2.8205 l 10.457,4.3314 c 1.277,0.5289 2.7118,0.5289 3.9888,0 l 10.457,-4.3314 c 1.2769,-0.529 2.2915,-1.5436 2.8205,-2.8205 l 4.3314,-10.457 c 0.5289,-1.277 0.5289,-2.7118 0,-3.9888 L 35.2719,7.5486 C 34.7429,6.27158 33.7283,5.25707 32.4514,4.72813 L 21.9944,0.396708 c -1.277,-0.528944 -2.7118,-0.528944 -3.9888,0 z m 4.8585,26.572292 4.8352,4.8352 c -4.6508,3.0402 -10.7039,3.0482 -15.3621,0.0238 l 4.8417,-4.8415 c 1.8201,0.7339 3.8688,0.7281 5.6852,-0.0175 z M 8.19569,12.3008 13.031,17.1361 c -0.771,1.878 -0.751,4.0044 0.0599,5.8696 L 8.27594,27.8205 C 5.14788,23.1421 5.12108,17.0044 8.19569,12.3008 Z M 31.7524,27.778 26.9305,22.956 c 0.7837,-1.839 0.8024,-3.9262 0.056,-5.7771 l 4.8415,-4.8417 c 3.0414,4.6845 3.0163,10.7797 -0.0756,15.4408 z M 27.8206,8.27594 23.0057,13.0909 c -1.8958,-0.8242 -4.0615,-0.8313 -5.9619,-0.0214 l -4.822,-4.82176 c 4.7137,-3.12688 10.894,-3.11748 15.5988,0.0282 z"
       fill="#ffffff"
       id="path2" />
    <mask
       id="mask0_2_56"
       maskUnits="userSpaceOnUse"
       x="0"
       y="0"
       width="40"
       height="40">
      <path
         d="m 18.0056,0.396708 c 1.277,-0.528944 2.7118,-0.528944 3.9888,0 l 10.457,4.331422 c 1.2769,0.52894 2.2915,1.54345 2.8205,2.82047 l 4.3314,10.457 c 0.5289,1.277 0.5289,2.7118 0,3.9887 l -4.3314,10.4571 c -0.529,1.2769 -1.5436,2.2915 -2.8205,2.8205 l -10.457,4.3314 c -1.277,0.5289 -2.7118,0.5289 -3.9888,0 L 7.5486,35.2719 C 6.27158,34.7429 5.25707,33.7283 4.72813,32.4514 L 0.396708,21.9943 c -0.528944,-1.2769 -0.528944,-2.7117 0,-3.9887 L 4.72813,7.5486 C 5.25707,6.27158 6.27158,5.25707 7.5486,4.72813 Z M 22.8641,26.969 c -1.8164,0.7456 -3.8651,0.7514 -5.6852,0.0175 l -4.8417,4.8415 c 4.6582,3.0244 10.7113,3.0164 15.3621,-0.0238 z M 8.19569,12.3008 C 5.12108,17.0044 5.14788,23.142 8.27594,27.8205 L 13.0908,23.0057 C 12.28,21.1405 12.26,19.0141 13.0309,17.1361 Z m 23.63231,0.0364 -4.8415,4.8417 c 0.7463,1.8509 0.7277,3.9381 -0.056,5.7771 l 4.8219,4.822 c 3.0918,-4.6611 3.117,-10.7563 0.0756,-15.4408 z M 27.8205,8.27594 C 23.1158,5.13026 16.9355,5.12086 12.2218,8.24774 l 4.822,4.82176 c 1.9004,-0.8099 4.0661,-0.8028 5.9619,0.0213 z"
         fill="#ffffff"
         id="path4" />
    </mask>
    <g
       mask="url(#mask0_2_56)"
       id="g9">
      <path
         fill-rule="evenodd"
         clip-rule="evenodd"
         d="M -0.192993,40.3252 H 40.3253 V -0.193089 H -0.192993 Z"
         fill="#ffffff"
         id="path7" />
    </g>
  </g>
  <defs
     id="defs20">
    <clipPath
       id="clip0_2_56">
      <rect
         width="40"
         height="40"
         fill="#ffffff"
         id="rect17"
         x="0"
         y="0" />
    </clipPath>
  </defs>
</svg>
