<svg width="225" height="40" viewBox="0 0 225 40" fill="none" xmlns="http://www.w3.org/2000/svg">
<g clip-path="url(#clip0_126_290)">
<path fill-rule="evenodd" clip-rule="evenodd" d="M17.8736 0.396708L7.49326 4.72813C6.2256 5.25707 5.21853 6.27158 4.69346 7.5486L0.3938 18.0056C-0.131267 19.2826 -0.131267 20.7174 0.3938 21.9944L4.69346 32.4514C5.21853 33.7283 6.2256 34.7429 7.49326 35.2719L17.8736 39.6033C19.1412 40.1322 20.5655 40.1322 21.8331 39.6033L32.2135 35.2719C33.4811 34.7429 34.4882 33.7283 35.0133 32.4514L39.3129 21.9944C39.838 20.7174 39.838 19.2826 39.3129 18.0056L35.0133 7.5486C34.4882 6.27158 33.4811 5.25707 32.2135 4.72813L21.8331 0.396708C20.5655 -0.132236 19.1412 -0.132236 17.8736 0.396708ZM22.6965 26.969L27.4963 31.8042C22.8795 34.8444 16.8708 34.8524 12.2468 31.828L17.053 26.9865C18.8597 27.7204 20.8934 27.7146 22.6965 26.969ZM8.13561 12.3008L12.9354 17.1361C12.1701 19.0141 12.19 21.1405 12.9949 23.0057L8.21527 27.8205C5.11014 23.1421 5.08354 17.0044 8.13561 12.3008ZM31.5196 27.778L26.7331 22.956C27.511 21.117 27.5296 19.0298 26.7887 17.1789L31.5946 12.3372C34.6138 17.0217 34.5888 23.1169 31.5196 27.778ZM27.6166 8.27594L22.837 13.0909C20.9551 12.2667 18.8053 12.2596 16.9188 13.0695L12.1322 8.24774C16.8113 5.12086 22.9463 5.13026 27.6166 8.27594Z" fill="#4CD7A4"/>
<mask id="mask0_126_290" style="mask-type:alpha" maskUnits="userSpaceOnUse" x="0" y="0" width="40" height="40">
<path d="M17.8736 0.396708C19.1412 -0.132236 20.5655 -0.132236 21.8331 0.396708L32.2135 4.72813C33.4811 5.25707 34.4882 6.27158 35.0133 7.5486L39.3129 18.0056C39.838 19.2826 39.838 20.7174 39.3129 21.9943L35.0133 32.4514C34.4882 33.7283 33.4811 34.7429 32.2135 35.2719L21.8331 39.6033C20.5655 40.1322 19.1412 40.1322 17.8736 39.6033L7.49326 35.2719C6.2256 34.7429 5.21853 33.7283 4.69346 32.4514L0.3938 21.9943C-0.131267 20.7174 -0.131267 19.2826 0.3938 18.0056L4.69346 7.5486C5.21853 6.27158 6.2256 5.25707 7.49326 4.72813L17.8736 0.396708ZM22.6965 26.969C20.8934 27.7146 18.8597 27.7204 17.053 26.9865L12.2468 31.828C16.8708 34.8524 22.8795 34.8444 27.4963 31.8042L22.6965 26.969ZM8.13561 12.3008C5.08354 17.0044 5.11014 23.142 8.21527 27.8205L12.9948 23.0057C12.19 21.1405 12.1701 19.0141 12.9354 17.1361L8.13561 12.3008ZM31.5946 12.3372L26.7887 17.1789C27.5295 19.0298 27.511 21.117 26.7331 22.956L31.5196 27.778C34.5887 23.1169 34.6138 17.0217 31.5946 12.3372ZM27.6166 8.27594C22.9463 5.13026 16.8113 5.12086 12.1322 8.24774L16.9188 13.0695C18.8053 12.2596 20.9551 12.2667 22.837 13.0908L27.6166 8.27594Z" fill="white"/>
</mask>
<g mask="url(#mask0_126_290)">
<path fill-rule="evenodd" clip-rule="evenodd" d="M-0.191589 40.3254H40.0297V-0.192871H-0.191589V40.3254Z" fill="#4CD7A4"/>
</g>
</g>
<path d="M51.6465 28.1442V14.5714H56.449V16.4934C56.984 15.7511 57.62 15.1767 58.3568 14.7703C59.0936 14.3549 59.8699 14.1473 60.6857 14.1473C61.1857 14.1473 61.7076 14.2268 62.2514 14.3859C62.7953 14.5449 63.247 14.7526 63.6066 15.0088L61.6067 19.078C61.2909 18.8571 60.9225 18.6804 60.5015 18.5478C60.0804 18.4064 59.6901 18.3358 59.3305 18.3358C58.8392 18.3358 58.37 18.4639 57.9226 18.7201C57.484 18.9764 57.1288 19.3122 56.8568 19.7275C56.5849 20.134 56.449 20.5758 56.449 21.053V28.1442H51.6465Z" fill="white"/>
<path d="M72.0439 28.5683C70.5264 28.5683 69.158 28.2635 67.9387 27.6538C66.7195 27.0352 65.7546 26.1869 65.0441 25.1089C64.3336 24.022 63.9783 22.7716 63.9783 21.3578C63.9783 19.944 64.3336 18.698 65.0441 17.62C65.7546 16.5331 66.7195 15.6848 67.9387 15.0751C69.158 14.4566 70.5264 14.1473 72.0439 14.1473C73.5614 14.1473 74.9297 14.4566 76.149 15.0751C77.3683 15.6848 78.3331 16.5331 79.0436 17.62C79.7541 18.698 80.1094 19.944 80.1094 21.3578C80.1094 22.7716 79.7541 24.022 79.0436 25.1089C78.3331 26.1869 77.3683 27.0352 76.149 27.6538C74.9297 28.2635 73.5614 28.5683 72.0439 28.5683ZM72.0439 24.4594C72.6053 24.4594 73.114 24.3269 73.5701 24.0618C74.035 23.7967 74.4034 23.4344 74.6754 22.9749C74.9473 22.5066 75.0832 21.9675 75.0832 21.3578C75.0832 20.7481 74.9473 20.2091 74.6754 19.7407C74.4034 19.2724 74.035 18.9101 73.5701 18.6539C73.114 18.3888 72.6053 18.2562 72.0439 18.2562C71.4825 18.2562 70.9693 18.3888 70.5044 18.6539C70.0483 18.9101 69.6843 19.2724 69.4124 19.7407C69.1404 20.2091 69.0045 20.7481 69.0045 21.3578C69.0045 21.9675 69.1404 22.5066 69.4124 22.9749C69.6843 23.4344 70.0483 23.7967 70.5044 24.0618C70.9693 24.3269 71.4825 24.4594 72.0439 24.4594Z" fill="white"/>
<path d="M92.5175 28.5683C91.6842 28.5683 90.886 28.4093 90.1229 28.0912C89.3685 27.7731 88.6887 27.3224 88.0834 26.7392V28.1442H83.281V5.34619H88.0834V15.8174C88.6097 15.2872 89.2457 14.8763 89.9913 14.5847C90.7456 14.2931 91.5483 14.1473 92.3991 14.1473C93.6973 14.1473 94.8552 14.4654 95.8727 15.1016C96.8902 15.729 97.6884 16.5861 98.2673 17.673C98.8463 18.7599 99.1357 19.9882 99.1357 21.3578C99.1357 22.7716 98.8331 24.022 98.2279 25.1089C97.6314 26.1958 96.8332 27.0441 95.8332 27.6538C94.8332 28.2635 93.728 28.5683 92.5175 28.5683ZM91.0439 24.4727C91.6404 24.4727 92.1623 24.3401 92.6096 24.075C93.0657 23.8011 93.421 23.4344 93.6754 22.9749C93.9385 22.5066 94.0701 21.9808 94.0701 21.3976C94.0701 20.7879 93.9341 20.2488 93.6622 19.7805C93.3991 19.3033 93.0394 18.9278 92.5833 18.6539C92.136 18.3799 91.6184 18.243 91.0307 18.243C90.4518 18.243 89.9299 18.3799 89.465 18.6539C89.0089 18.9278 88.6448 19.2989 88.3729 19.7673C88.1098 20.2356 87.9782 20.7746 87.9782 21.3843C87.9782 21.9675 88.1098 22.4933 88.3729 22.9616C88.6361 23.43 88.9957 23.8011 89.4518 24.075C89.9167 24.3401 90.4474 24.4727 91.0439 24.4727Z" fill="white"/>
<path d="M109.542 28.5683C106.929 28.5683 105.043 28.0691 103.885 27.0706C102.727 26.0721 102.148 24.4506 102.148 22.2061V14.5714H106.95V21.0132C106.95 22.3475 107.143 23.2886 107.529 23.8364C107.924 24.3755 108.595 24.645 109.542 24.645C110.499 24.645 111.17 24.3755 111.556 23.8364C111.942 23.2886 112.134 22.3475 112.134 21.0132V14.5714H116.937V22.2061C116.937 24.4506 116.358 26.0721 115.2 27.0706C114.042 28.0691 112.156 28.5683 109.542 28.5683Z" fill="white"/>
<path d="M124.837 28.5683C123.688 28.5683 122.653 28.4181 121.732 28.1177C120.82 27.8173 120.044 27.3754 119.403 26.7922L121.35 23.4918C121.956 23.9867 122.552 24.3666 123.14 24.6317C123.736 24.888 124.307 25.0161 124.85 25.0161C125.114 25.0161 125.333 24.9808 125.508 24.9101C125.684 24.8394 125.815 24.7333 125.903 24.592C125.999 24.4506 126.048 24.2738 126.048 24.0618C126.048 23.779 125.96 23.5581 125.785 23.399C125.618 23.2311 125.346 23.0677 124.969 22.9086C124.6 22.7496 124.118 22.5463 123.521 22.2989C122.978 22.0603 122.464 21.7952 121.982 21.5036C121.5 21.212 121.105 20.8409 120.798 20.3902C120.5 19.9396 120.351 19.3652 120.351 18.6671C120.351 17.7835 120.601 17.0059 121.1 16.3343C121.6 15.6539 122.289 15.1237 123.166 14.7437C124.052 14.3638 125.074 14.1738 126.232 14.1738C126.872 14.1738 127.57 14.2577 128.324 14.4256C129.087 14.5847 129.938 14.8321 130.877 15.1679L129.324 18.3358C128.078 17.7172 127.061 17.4079 126.271 17.4079C125.85 17.4079 125.521 17.4875 125.285 17.6465C125.048 17.8056 124.929 18.0044 124.929 18.243C124.929 18.4992 125.087 18.7378 125.403 18.9587C125.728 19.1708 126.113 19.3608 126.561 19.5287C127.008 19.6966 127.412 19.8468 127.771 19.9793C128.403 20.2002 128.969 20.4609 129.469 20.7614C129.969 21.0618 130.363 21.4594 130.653 21.9543C130.942 22.4403 131.087 23.0853 131.087 23.8895C131.087 24.8968 130.841 25.7495 130.35 26.4476C129.868 27.1368 129.162 27.6626 128.232 28.0249C127.302 28.3872 126.171 28.5683 124.837 28.5683Z" fill="white"/>
<path d="M139.41 28.5683C137.954 28.5683 136.818 28.1089 136.002 27.1899C135.187 26.262 134.779 24.9675 134.779 23.3062V18.243H132.818V14.5714H134.779V9.48164H139.581V14.5714H142.397V18.243H139.581V22.9484C139.581 23.3725 139.665 23.6951 139.831 23.916C140.007 24.1369 140.261 24.2473 140.594 24.2473C140.98 24.2473 141.362 24.1059 141.739 23.8232L142.936 27.7068C142.428 27.9719 141.862 28.1795 141.239 28.3298C140.616 28.4888 140.007 28.5683 139.41 28.5683Z" fill="white"/>
<path d="M151.705 28.5683C150.468 28.5683 149.345 28.2591 148.337 27.6405C147.328 27.0131 146.525 26.156 145.929 25.0691C145.332 23.9734 145.034 22.7275 145.034 21.3313C145.034 19.9793 145.319 18.7643 145.889 17.6863C146.46 16.5994 147.245 15.7378 148.245 15.1016C149.245 14.4654 150.398 14.1473 151.705 14.1473C152.556 14.1473 153.363 14.2931 154.126 14.5847C154.898 14.8763 155.551 15.2872 156.086 15.8174V14.5714H160.889V28.1442H156.086V26.7392C155.455 27.3401 154.771 27.7952 154.034 28.1044C153.306 28.4137 152.53 28.5683 151.705 28.5683ZM153.152 24.4727C153.749 24.4727 154.275 24.3401 154.731 24.075C155.187 23.8011 155.543 23.43 155.797 22.9616C156.051 22.4933 156.179 21.9587 156.179 21.3578C156.179 20.7569 156.047 20.2223 155.784 19.754C155.529 19.2857 155.174 18.919 154.718 18.6539C154.262 18.3799 153.74 18.243 153.152 18.243C152.573 18.243 152.051 18.3799 151.587 18.6539C151.13 18.919 150.766 19.2857 150.495 19.754C150.231 20.2223 150.1 20.7569 150.1 21.3578C150.1 21.9499 150.231 22.4845 150.495 22.9616C150.758 23.43 151.117 23.8011 151.573 24.075C152.038 24.3401 152.565 24.4727 153.152 24.4727Z" fill="white"/>
<path d="M177.809 28H174.059L174.082 25.0469H177.809C178.66 25.0469 179.379 24.8516 179.965 24.4609C180.551 24.0625 180.996 23.4766 181.301 22.7031C181.605 21.9219 181.758 20.9727 181.758 19.8555V19.0703C181.758 18.2266 181.672 17.4844 181.5 16.8438C181.328 16.1953 181.074 15.6523 180.738 15.2148C180.402 14.7773 179.984 14.4492 179.484 14.2305C178.992 14.0117 178.426 13.9023 177.785 13.9023H173.988V10.9375H177.785C178.941 10.9375 179.996 11.1328 180.949 11.5234C181.91 11.9141 182.738 12.4727 183.434 13.1992C184.137 13.9258 184.68 14.7852 185.062 15.7773C185.445 16.7695 185.637 17.875 185.637 19.0938V19.8555C185.637 21.0664 185.445 22.1719 185.062 23.1719C184.68 24.1641 184.137 25.0234 183.434 25.75C182.738 26.4688 181.914 27.0234 180.961 27.4141C180.008 27.8047 178.957 28 177.809 28ZM176.227 10.9375V28H172.406V10.9375H176.227ZM187.254 21.7891V21.543C187.254 20.6133 187.387 19.7578 187.652 18.9766C187.918 18.1875 188.309 17.5039 188.824 16.9258C189.34 16.3477 189.973 15.8984 190.723 15.5781C191.473 15.25 192.332 15.0859 193.301 15.0859C194.285 15.0859 195.152 15.25 195.902 15.5781C196.66 15.8984 197.297 16.3477 197.812 16.9258C198.328 17.5039 198.719 18.1875 198.984 18.9766C199.25 19.7578 199.383 20.6133 199.383 21.543V21.7891C199.383 22.7109 199.25 23.5664 198.984 24.3555C198.719 25.1367 198.328 25.8203 197.812 26.4062C197.297 26.9844 196.664 27.4336 195.914 27.7539C195.164 28.0742 194.301 28.2344 193.324 28.2344C192.355 28.2344 191.492 28.0742 190.734 27.7539C189.977 27.4336 189.34 26.9844 188.824 26.4062C188.309 25.8203 187.918 25.1367 187.652 24.3555C187.387 23.5664 187.254 22.7109 187.254 21.7891ZM190.922 21.543V21.7891C190.922 22.2891 190.961 22.7578 191.039 23.1953C191.125 23.6328 191.262 24.0156 191.449 24.3438C191.637 24.6719 191.883 24.9297 192.188 25.1172C192.5 25.2969 192.879 25.3867 193.324 25.3867C193.77 25.3867 194.145 25.2969 194.449 25.1172C194.754 24.9297 195 24.6719 195.188 24.3438C195.375 24.0156 195.508 23.6328 195.586 23.1953C195.672 22.7578 195.715 22.2891 195.715 21.7891V21.543C195.715 21.0508 195.672 20.5898 195.586 20.1602C195.508 19.7227 195.375 19.3359 195.188 19C195 18.6641 194.75 18.4023 194.438 18.2148C194.133 18.0273 193.754 17.9336 193.301 17.9336C192.863 17.9336 192.492 18.0273 192.188 18.2148C191.883 18.4023 191.637 18.6641 191.449 19C191.262 19.3359 191.125 19.7227 191.039 20.1602C190.961 20.5898 190.922 21.0508 190.922 21.543ZM206.602 25.3867C206.992 25.3867 207.332 25.3125 207.621 25.1641C207.91 25.0156 208.133 24.8086 208.289 24.543C208.453 24.2695 208.535 23.9414 208.535 23.5586H211.98C211.98 24.4805 211.742 25.293 211.266 25.9961C210.797 26.6992 210.164 27.25 209.367 27.6484C208.57 28.0391 207.672 28.2344 206.672 28.2344C205.688 28.2344 204.828 28.0742 204.094 27.7539C203.359 27.4258 202.746 26.9688 202.254 26.3828C201.762 25.7969 201.391 25.1172 201.141 24.3438C200.898 23.5625 200.777 22.7188 200.777 21.8125V21.5078C200.777 20.6094 200.898 19.7695 201.141 18.9883C201.391 18.207 201.762 17.5234 202.254 16.9375C202.746 16.3516 203.355 15.8984 204.082 15.5781C204.816 15.25 205.676 15.0859 206.66 15.0859C207.699 15.0859 208.617 15.2852 209.414 15.6836C210.219 16.082 210.848 16.6562 211.301 17.4062C211.754 18.1484 211.98 19.043 211.98 20.0898H208.535C208.535 19.6836 208.461 19.3203 208.312 19C208.172 18.6719 207.953 18.4141 207.656 18.2266C207.367 18.0312 207.008 17.9336 206.578 17.9336C206.133 17.9336 205.766 18.0312 205.477 18.2266C205.195 18.4141 204.98 18.6758 204.832 19.0117C204.684 19.3477 204.582 19.7305 204.527 20.1602C204.473 20.582 204.445 21.0312 204.445 21.5078V21.8125C204.445 22.2969 204.473 22.7578 204.527 23.1953C204.582 23.625 204.684 24.0039 204.832 24.332C204.988 24.6602 205.207 24.918 205.488 25.1055C205.77 25.293 206.141 25.3867 206.602 25.3867ZM220.547 24.4727C220.547 24.2383 220.473 24.0312 220.324 23.8516C220.184 23.6719 219.926 23.5078 219.551 23.3594C219.184 23.2109 218.664 23.0625 217.992 22.9141C217.359 22.7812 216.77 22.6094 216.223 22.3984C215.676 22.1797 215.199 21.918 214.793 21.6133C214.387 21.3008 214.07 20.9336 213.844 20.5117C213.617 20.082 213.504 19.5938 213.504 19.0469C213.504 18.5156 213.617 18.0117 213.844 17.5352C214.078 17.0586 214.414 16.6367 214.852 16.2695C215.297 15.9023 215.836 15.6133 216.469 15.4023C217.109 15.1914 217.836 15.0859 218.648 15.0859C219.766 15.0859 220.73 15.2617 221.543 15.6133C222.355 15.957 222.98 16.4414 223.418 17.0664C223.855 17.6836 224.074 18.3906 224.074 19.1875H220.418C220.418 18.8594 220.355 18.5742 220.23 18.332C220.105 18.0898 219.914 17.9023 219.656 17.7695C219.398 17.6289 219.059 17.5586 218.637 17.5586C218.309 17.5586 218.02 17.6172 217.77 17.7344C217.527 17.8438 217.336 17.9961 217.195 18.1914C217.062 18.3867 216.996 18.6133 216.996 18.8711C216.996 19.0508 217.035 19.2148 217.113 19.3633C217.199 19.5039 217.328 19.6367 217.5 19.7617C217.68 19.8789 217.91 19.9844 218.191 20.0781C218.48 20.1719 218.832 20.2617 219.246 20.3477C220.129 20.5117 220.934 20.7422 221.66 21.0391C222.395 21.3359 222.98 21.7461 223.418 22.2695C223.863 22.793 224.086 23.4844 224.086 24.3438C224.086 24.9062 223.957 25.4219 223.699 25.8906C223.449 26.3594 223.086 26.7695 222.609 27.1211C222.133 27.4727 221.562 27.7461 220.898 27.9414C220.234 28.1367 219.484 28.2344 218.648 28.2344C217.453 28.2344 216.441 28.0195 215.613 27.5898C214.785 27.1602 214.16 26.6211 213.738 25.9727C213.324 25.3164 213.117 24.6445 213.117 23.957H216.551C216.566 24.3789 216.672 24.7227 216.867 24.9883C217.07 25.2539 217.332 25.4492 217.652 25.5742C217.973 25.6914 218.332 25.75 218.73 25.75C219.129 25.75 219.461 25.6953 219.727 25.5859C219.992 25.4766 220.195 25.3281 220.336 25.1406C220.477 24.9453 220.547 24.7227 220.547 24.4727Z" fill="white"/>
<defs>
<clipPath id="clip0_126_290">
<rect width="39.7067" height="40" fill="white"/>
</clipPath>
</defs>
</svg>
